<svg id="Слой_1" data-name="Слой 1" xmlns="http://www.w3.org/2000/svg" viewBox="0 0 549.52 552"><path d="M487.36,747.81c.43-8.73-.76-17.35-1.34-26-.54-8.08-1.34-16.14-2-24.2-.81-9.21-1.61-18.41-2.5-27.61q-1.52-15.64-3.2-31.28c-1-9.74-2.12-19.47-3.21-29.2-1.58-14.25-3.11-28.51-4.79-42.74-1.71-14.46-3.6-28.89-5.36-43.34-1.46-12-2.85-23.94-4.3-35.9-1.57-13-3.19-26-4.75-39q-2.19-18.29-4.32-36.6-1.86-16.1-3.65-32.21-1.92-17.31-3.77-34.64c-.72-6.75-1.36-13.53-1.62-20.37q33.25,211.53,56.45,425c-.41-9.51.15-19-.32-28.45-.46-9.14-1-18.27-1.56-27.4q-1.08-18.5-2.18-37c-.58-9.58-1.13-19.16-1.83-28.72-.81-11-1.77-22.07-2.66-33.1q-1.22-15-2.45-30c-1-12-2.08-24.1-3.1-36.15-.68-8.08-1.33-16.16-2-24.23-1.09-12.84-2.24-25.68-3.3-38.53-.86-10.35-1.61-20.71-2.43-31.06q-1.33-16.91-2.71-33.79Q473.2,386.19,472,371c-.89-11-1.88-22.07-2.68-33.11-.59-8.08-.94-16.19-1-24.33Q494.9,535.08,510.79,758.1c.31-18.26.86-36.45.16-54.66-.39-10.07,0-20.19-.29-30.27q-.69-27.31-1.73-54.61c-.63-16.58-1.43-33.14-2.22-49.71q-1.36-28.46-2.86-56.89c-.92-17.83-1.74-35.66-2.88-53.47-1-15.29-1.46-30.62-2.24-45.93-1-19.53-2.13-39.05-2.93-58.6-.53-13-1.2-26.06-1.73-39.1-.34-8.24-.1-16.48-.88-25.62,1.54,4,1.13,7.38,1.43,10.59,1,10.91,1.6,21.87,2.47,32.8,1.21,15.25,2.57,30.48,3.78,45.73.72,9.11,1.25,18.23,1.9,27.35.69,9.67,1.45,19.34,2.14,29,.64,9,1.2,18,1.84,27,.65,9.23,1.42,18.44,2,27.67.54,8.21.89,16.44,1.4,24.66.68,11.06,1.48,22.11,2.15,33.18.49,8.22.81,16.46,1.28,24.68.66,11.41,1.43,22.81,2.09,34.21.49,8.56.9,17.12,1.3,25.68q1.1,23.31,2.13,46.63c.43,9.37.93,18.75,1.26,28.13.67,18.87,1.41,37.74,2.75,56.57a46.93,46.93,0,0,0,.54,6.85c.41-6.18,1.07-12.36,1.19-18.55.32-17.77.72-35.54.92-53.31.24-21.1.34-42.2.18-63.3q-.42-52.12-1.14-104.24c-.29-23.38-.57-46.77-1.11-70.15-.48-21.09-.66-42.18-1.23-63.26-.42-15.94,0-31.88-.55-47.8-.63-19.73-.24-39.45-.36-59.17a14.88,14.88,0,0,1,.16-2.74c1.42,5.81,1,11.85,1.39,17.76.74,11.64.85,23.34,1.33,35,.62,15,1.41,29.95,2,44.93.55,13.38.91,26.78,1.42,40.16.62,16.13,1.26,32.25,1.77,48.39q1,30.4,1.64,60.8.66,31.62,1.73,63.23c.54,15.81.8,31.61,1.13,47.42q1,48.3,2.31,96.58c.47,16.72,1.12,33.43,1.07,50.89,1.49-2.75,1.44-5.32,1.56-7.63.69-13,1.43-26,1.91-39.09.63-16.93,1.18-33.87,1.74-50.8.59-17.87.79-35.75,1.14-53.62.56-29.23.81-58.47,1.24-87.71.22-14.79-.06-29.6.51-44.37.64-16.62.24-33.24.52-49.87.48-28.31.69-56.63,1.18-84.95.43-25.09,1-50.19,1.65-75.28a177.14,177.14,0,0,1,1.3-18.18c.09,2.38.25,4.77.27,7.15.25,29.36.3,58.72.79,88.07.44,27.29.13,54.59.53,81.87.76,51.16.24,102.31.57,153.46.23,37,.26,74.1.55,111.14.19,23.39.68,46.77,1.07,70.16.08,4.69.35,9.38.56,14.08,0,.62-.14,1.42.89,1.88.45-4.67,1-9.21,1.3-13.78,1.16-16.18,2.32-32.36,3.33-48.55.56-9.13.86-18.28,1.23-27.43,1-24.48,2-49,2.43-73.49.21-12.48.73-25,1-37.44q.69-28.87,1.24-57.75c.39-19.37.63-38.75,1.12-58.11.4-16.28.18-32.57.65-48.83.33-11.47.23-22.93.45-34.39.4-21.2.76-42.4,1.25-63.6.46-20.28,1.05-40.55,1.64-60.82a78,78,0,0,1,.75-7.77q.84,15.64.87,31.28.08,43.19.29,86.36c.42,69.05.62,138.09,0,207.14-.62,74.44-.15,148.87-.3,223.31,0,3.26-.8,3.9-3.32,3.9q-75.45-.13-150.89,0a4.34,4.34,0,0,1-3.92-2c-14.3-19.43-28.55-38.92-43-58.14-11.05-14.65-21.91-29.51-33.19-43.91-12.77-16.31-25.23-33-37.78-49.55-1.15-1.53-1.73-2-3.18-.16-12.68,16.27-25.61,32.26-38.19,48.64-15.23,19.82-30.2,39.92-45.26,59.92-10.15,13.48-20.4,26.85-30.29,40.6-2.6,3.61-5.16,4.68-8.94,4.67-48.77-.14-97.55-.08-146.32-.1-5.16,0-4.54.68-4.5-5.54q.27-36,.65-71.91c.35-32.67.55-65.36,1.22-98,.37-18.46-.06-36.92.49-55.38.75-24.76,0-49.55.58-74.31.55-22.59.21-45.18.52-67.78.42-30.61.54-61.22,1.2-91.83.27-12.6.1-25.21.73-37.81.42-8.33.14-16.71.29-25.07a84.15,84.15,0,0,1,1-11.27c.2,4.81.51,9.61.58,14.42.29,20.75.35,41.51.83,62.25.33,13.88.21,27.75.5,41.62.74,35.31.69,70.62,1.26,105.93.29,18.12.13,36.24.46,54.35.56,30,.7,60.09,1.18,90.12.21,13.3.19,26.61.47,39.9.33,15.58.64,31.16,1.19,46.73Q38,770.67,39.39,796c.27,5,.5,10,1.88,15.14,1.1-10.88,1.48-21.52,1.91-32.15.6-14.65.8-29.32,1.37-44,.5-12.71.8-25.42,1.13-38.13.76-29.67,1.44-59.34,1.78-89,.27-24.42.72-48.83,1.11-73.25q.84-53.82,1.72-107.64.47-28.36,1.05-56.72c.31-14.67.64-29.34,1.13-44,.37-11.32,1-22.63,1.52-33.95a7.51,7.51,0,0,1,.2-1.14c2.87,169-.78,338.26,3.23,507.42,1.75-4.73,1.36-9.77,1.65-14.64.88-14.61,1.24-29.27,1.89-43.9.67-15.1,1.45-30.19,2.15-45.29.26-5.6.35-11.22.5-16.83.43-15.34,1.15-30.66,1.46-46,.38-18.89,1.09-37.78,1.68-56.67.48-15.33,1.12-30.65,1.68-46q.79-21.79,1.75-43.59c.85-19.21,1.52-38.43,2.22-57.65.75-20.6,1.68-41.18,2.28-61.79.51-17.62,1.45-35.22,2.25-52.82.4-8.91.9-17.81,1.72-26.73,0,2,0,3.91,0,5.87-.06,22.25.16,44.51-.27,66.76-.35,18.23-.23,36.46-.56,54.69-.39,21.43-.57,42.88-1.08,64.31-.36,15.35-.68,30.71-1.16,46q-1.22,39.18-1.75,78.36c-.31,25.91-.59,51.82-1.1,77.72-.35,18.35-.1,36.7-.56,55-.29,11.58-.63,23.13,0,34.7a3,3,0,0,0,.5,1.61c.83-10.9,1.81-21.78,2.45-32.7,1.09-18.61,1.88-37.24,2.95-55.86q1.53-26.89,2.85-53.8c1-19.29,2.53-38.54,3.76-57.82.69-10.84,1.17-21.7,1.86-32.55.83-13,1.83-26,2.67-39,.52-8.11.81-16.23,1.31-24.34C91.21,464.84,92,453.9,92.68,443c.47-7.63.94-15.28,1.24-22.92.44-11,1.43-21.89,2.16-32.83.67-10,1.2-20.1,1.85-30.14.67-10.37,1.43-20.73,2.11-31.1.71-10.72,1.38-21.43,2.2-32.14.48,14.41-.14,28.79-.68,43.17-.27,7.1-.29,14.2-.62,21.3-.71,15.1-.83,30.24-1.38,45.35C99,419.43,98.18,435.21,97.5,451c-.45,10.29-.79,20.59-1.3,30.88-.86,17.6-1.43,35.22-2.67,52.79-.63,9-.86,18.06-1.29,27.09-.7,14.52-1.45,29-2.11,43.55-.5,11-.87,22-1.32,33-.68,16.23-1.51,32.46-2.06,48.7-.65,19.57-1.75,39.14-1.2,59.6a173.16,173.16,0,0,0,2.68-20.65c.92-9.88,1.87-19.75,2.71-29.64.88-10.35,1.6-20.71,2.45-31.06.84-10.13,1.73-20.24,2.61-30.36q1.23-14,2.51-27.94c1-11.24,2.18-22.47,3.21-33.71.88-9.66,1.6-19.33,2.49-29,1.17-12.83,2.47-25.65,3.66-38.48,1.09-11.81,2.11-23.63,3.18-35.44q1.47-16.36,3-32.71c1.06-11.24,2.12-22.48,3.27-33.7,1-9.41,2-18.79,3.09-28.19q1.86-16.8,3.7-33.61,1.65-15.12,3.2-30.26c.31-2.94.57-5.9.79-8.86a7.77,7.77,0,0,1,1.13-4.12c-.69,11.45-1.33,22.51-2.05,33.57-.58,9-1.25,18-1.91,27-1.1,15-2.24,30.08-3.33,45.12-.82,11.38-1.53,22.78-2.4,34.16-.82,10.82-1.82,21.61-2.68,32.43-.84,10.59-1.56,21.19-2.42,31.79-1,13.08-2.18,26.15-3.28,39.23-.8,9.44-1.64,18.87-2.41,28.31-.87,10.57-1.65,21.15-2.7,31.71-1,10.21-1.66,20.48-2.42,30.72q-1.4,18.45-2.7,36.91c-.67,9.69-1.25,19.39-1.86,29.09-.73,11.4-1.47,22.8-2.14,34.21-.15,2.61,0,5.25,0,8.09,2.5-12.5,4.09-25,5.55-37.47,1.94-16.61,3.78-33.25,5.75-49.86,1.58-13.22,3.36-26.4,4.93-39.62,1.65-13.79,3.08-27.62,4.75-41.4,1.91-15.69,4-31.34,6-47,1.81-14.21,3.54-28.44,5.38-42.65,2.32-17.93,4.61-35.87,7.1-53.77,2.64-19,5.44-38,8.26-56.94,2.4-16.16,4.92-32.3,7.41-48.44.17-1.11.51-2.17,1-4.23-.82,9.79-1.47,18.59-2.32,27.35-1,10.09-2.15,20.16-3.27,30.23q-1.77,16-3.6,31.91-2.45,21.21-4.92,42.41c-2.08,17.63-3.79,35.33-6.1,52.93-2,15.33-3.56,30.75-5.34,46.12-1.64,14.13-3.37,28.25-5,42.4-1.81,16.18-3.48,32.39-5.27,48.57-1.61,14.6-3.35,29.18-4.93,43.79-1.29,12-2.43,24-3.62,36-.46,4.65-.89,9.31-1.34,14a2.24,2.24,0,0,0,.59,2.24c1.64-8.42,3.39-16.41,4.73-24.49,2.92-17.67,5.67-35.37,8.41-53.09,3.32-21.52,6.51-43.08,9.85-64.6q3.33-21.52,6.91-43,5-30,10.06-60,6.67-39.18,14.32-78.12c5-25.28,9.57-50.68,14.81-75.9a5.37,5.37,0,0,1,1-2.71c.66,4.32-.61,8.19-1.16,12q-4.83,34.06-10.13,68c-2.53,16.25-5.38,32.43-8.11,48.64-1.37,8.16-2.74,16.32-4.2,24.45a3.08,3.08,0,0,0,.84,3c2.75,3,5.43,6.07,8.23,9,2.38,2.49,2.44,2.41,3.23-1.18q7.42-33.72,14.87-67.44c5.87-26.55,12.22-52.93,18.84-79.22.92-3.66,1.59-7.48,3.35-10.78l.12.13c-1.8,9.9-3.55,19.81-5.41,29.69q-5.62,30-11.37,60c-.16.85-.64,1.61.23,2.43A151.53,151.53,0,0,1,201,450c8.78-31.57,17.42-62.68,26.07-93.79.74,2.57,0,4.84-.5,7.08-4.39,20.16-8.79,40.33-13.34,60.44-2.24,9.89-4.78,19.69-7.26,29.5-.39,1.55-.6,2.91.42,4.12,4,4.69,7.34,10.08,11.28,15.36,10.41-33.81,20.52-67.41,33-99.9-1.3,5.32-2.56,10.66-3.91,16Q235.72,432,222.9,474.61c-.82,2.71-.6,4.64,1,6.7,3,3.78,5.88,7.76,9,11.87,1.91-3,2.54-6.76,3.8-10.08,3.17-8.41,6-17,9.11-25.46,1.15-3.09.6-5.73-.53-8.46l.46-.52c1.51,2.21,2.37,1.88,3.34-.76q5.64-15.36,11.59-30.53a6.08,6.08,0,0,0-.16-4.85c-2-5.12-4.21-10.18-5.53-16.38a93.78,93.78,0,0,1,8,15.54c3.83-7.74,6.38-15.82,10.8-22.73-1.78,6-3.07,12.38-5.48,18-2.73,6.44-1.95,11.51,1.31,17.23s5.67,12.11,8.47,18.27c.94-.11.9-1.25,1.2-2,4.17-9.75,8.25-19.55,12.48-29.25a7.11,7.11,0,0,0,.22-5.52c-1-3-1.88-6.14-2.6-9.34,2.4,2.25,3.35,5.75,5.21,8.66l4.86-10.21c.44,3.33-.91,6-2,8.55a11,11,0,0,0,.29,9.86c3.73,7.8,7,15.91,10.65,24.28,4.95-10.84,9.81-21.39,14.57-32,.79-1.76-.32-3.5-.67-5.22-.84-4.17-2.43-8.15-2.35-12.57l0,.06c2.17,2.39,2.44,6,3.95,8.85.59,1.11,1,2.35,1.75,4.1,1.86-3.54,3.48-6.65,5.13-9.74.63-1.19,1-2.71,2.29-3.21l0,0a114.5,114.5,0,0,1-5.38,14.27c-.41.95-1.05,1.75-.53,3.13,4.17,11.1,8.24,22.25,12.44,33.63,4.45-8.22,8.79-16.24,13.15-24.26.74-1.36.17-2.58-.16-3.9-2.93-11.62-6-23.2-8.06-35.13,4.5,11.2,7.77,23,11.55,34.77,1.84-1.81,2.83-4.58,4.91-6l0-.05c-.12,2.77-1.64,4.78-2.63,7.08-.53,1.22-1.15,2.35-.66,3.85,3.2,10,6.37,20,9.68,30.38,3-5.07,5.94-9.9,8.83-14.74.17-.28.22-.68.42-.89,5.09-5.31,4.64-11.42,2.92-18.69-3.89-16.44-7-33.14-10.42-49.74a2.12,2.12,0,0,1,.23-1.45c9.59,32.28,17.91,65,26.47,98.37,4.28-6.51,8.79-12.15,13.14-18,.74-1,.24-2.12,0-3.25q-7.17-39.39-14.26-78.81A88.74,88.74,0,0,1,393.46,347c12.38,51.76,24.22,103.68,34.9,156.26,4.2-3.62,7.4-8.34,11.24-12.17.94-.95.48-2.32.29-3.56-3.7-24.11-7.47-48.2-11-72.33-2.78-18.75-5.53-37.52-7.86-56.35-1-7.76-2.45-15.48-2.37-23.42,1.74,4.54,2,9.54,2.95,14.31,2.73,14.22,5.21,28.5,7.74,42.77q6.85,38.63,13.65,77.27c.77,4.35,1.61,8.68,2.28,13.05.3,1.93.94,2.34,2.25,1.3s2.62-2.15,4.31-3.55c-.95,3.09-2.93,4.42-4.27,6.35a6,6,0,0,0-1,4.74c3.66,21.44,7.47,42.85,11,64.33,3.92,24,8.08,48,11.79,72.13,2.45,15.92,4.64,31.89,7.07,47.81,3.16,20.75,6.18,41.53,9.37,62.28.5,3.19.66,6.5,1.71,9.56l.2.15Zm-111,2.1c.1.3.16.76.5.24a2.34,2.34,0,0,0-.33-.45l-.5-.81-.41-.77c-.39-.48-.78-1-1.18-1.44l-.48-.63a11.94,11.94,0,0,0-.85-1.76c-6.33-9.12-12.58-18.31-19-27.29-12.92-18-26-35.79-38.93-53.74-3.95-5.48-3.87-5.57-8-.08-.19.25-.4.49-.6.73-2.68,3.28-2.67,3.27.12,6.67q27.19,33.21,56.1,64.27c3.6,3.87,6.74,8.36,10.72,11.72l.61.62,1.1,1.44.64.61C375.92,749.46,376.11,749.69,376.31,749.91ZM205,754.64c.48-.12.66-.56.77-1.07l.67-.56L218.79,737c8.87-11.47,17.82-22.85,26.59-34.41,11-14.53,22.16-28.93,33.63-43,4.9-6,5-5.88,0-11.93a15.39,15.39,0,0,1-1.38-1.73c-1-1.65-1.69-1-2.56.25-9.93,14.73-19.93,29.4-29.85,44.14q-12.36,18.38-24.61,36.88c-5.34,8-10.06,16.57-14.68,25.21l-.44.84a1.17,1.17,0,0,0-.5,1.46c-.34-.11-.51,0-.32.43Zm188.5-2.75L393,751c-1.25-2.41-2.4-4.92-3.77-7.23-20.39-34.28-42-67.44-63.57-100.62-.73-1.13-1.08-1.68-2.07-.36-2.17,2.87-4.42,5.67-6.71,8.4-1,1.13-1,1.86,0,3.07q13.88,17.94,27.66,36c7.09,9.22,14.14,18.51,21.3,27.65,8.86,11.3,17.83,22.48,26.76,33.7l.66.62c.14.33.2,1,.61.59S393.83,752.07,393.46,751.89Zm-166.23-8.17a12.22,12.22,0,0,0,1.09-1.07c9.33-11.26,18.5-22.71,28.22-33.48,11-12.24,22.14-24.39,33.15-36.66,5.59-6.23,5.5-6.28-.25-12.31-1.06-1.12-1.5-1-2.41.24-4.27,5.84-8.68,11.52-13,17.32-11.88,16-23.87,32-35.39,48.37-4,5.66-8.27,11-11.81,17.1-.31.3-1,.59-.53,1.13S227,744.12,227.23,743.72Zm-33.06,7.52c1.23-.14,1.62-1.5,2.23-2.41,6.07-9,12-18,18.11-26.93,10.08-14.89,20.1-29.83,30.33-44.56,8.6-12.37,17.45-24.47,26.22-36.66.8-1.11,1.13-1.83,0-3-2.55-2.71-5-5.59-7.6-8.57-8.26,14.09-16.71,28.43-25.09,42.84-12.58,21.62-25.69,42.8-37.36,65.17-2.41,4.61-5.23,8.95-6.88,14.12-.16.11-.59.09-.15.48Zm-25.57-14.4c1-.8,1.35-2.18,1.88-3.36q21.17-46.77,42.3-93.56,10.16-22.39,20.51-44.65c1.31-2.79,1.29-4.62-.91-6.57a28.62,28.62,0,0,1-5.54-6.66c-.49,1.19-.93,2.18-1.32,3.2-3.87,10.27-7.65,20.6-11.63,30.82-12,30.77-24.15,61.44-36,92.28-3.54,9.19-7.22,18.36-9.61,28.15l-.15,1.08C168.64,737.67,168.48,737.12,168.6,736.84Zm235.32,10.61c.31.59.54,1.3,1.31,1.29.17-1-.44-1.29-.9-1.72a36.41,36.41,0,0,0-1.51-4q-9.66-19-19.41-37.91C376,690.74,368,676.88,360,662.94c-7.11-12.53-14.32-25-21.87-38.16-2.43,3.21-4.61,6.41-7.08,9.23-1.4,1.61-1.57,2.67-.34,4.48,5.75,8.5,11.41,17.1,17.13,25.64q19.13,28.53,38.27,57Q395,734.35,403.92,747.45Zm20.83-6.54c.06.3.13.6.19.91.09-.11.28-.29.27-.3a7.07,7.07,0,0,0-.44-.63,14.1,14.1,0,0,0-.33-2q-4.37-13.39-9.36-26.44c-12.73-33.3-25.54-66.54-38.77-99.55-2.76-6.89-5.77-13.64-8.6-20.49-.74-1.8-1.21-1.83-2.3-.27-2.09,3-4.31,5.8-6.62,8.51-1.22,1.43-1.16,2.56-.24,4.08,4.85,8,9,16.67,13.22,25.18,14.4,28.89,27.7,58.55,41.47,87.88C416.91,725.62,420.18,733.74,424.75,740.91Zm19.37-5.53.13,1.6c.2-.58.74-1.26-.15-1.58-1-8.26-3.28-16.13-5.43-24Q429,676,419,640.77c-7.86-27.72-15.9-55.36-23.87-83-.25-.89-.33-2-1.19-2.52-2.44,3.21-4.69,6.46-7.2,9.39-1.44,1.69-1.42,3.09-.65,5.11,3.65,9.52,7.38,19,10.75,28.68,5.74,16.51,11.21,33.16,16.86,49.72q11.6,34,23.29,68C439.25,722.62,441.21,729.26,444.12,735.38Zm-2.75-239-1.12-.6c-3.08,4-6.12,8.13-9.28,12.07a4.39,4.39,0,0,0-1,4c.86,4,1.76,7.92,2.59,11.9,6.12,29.51,12.3,59,18.31,88.55,7.26,35.63,13.62,71.5,20,107.37,1,5.76,2.34,11.45,3.51,17.18C467.93,655.72,453.23,576.33,441.37,496.36ZM119.25,740.3c1.44-7.06,3-14.09,4.3-21.18,4.6-24.69,9-49.44,13.72-74.1,5.23-27.45,10.38-54.93,16.17-82.2C157,546,160.26,529.16,164.2,512.5c.34-1.43.52-2.61-.5-3.75-3.37-3.77-6.7-7.6-10.31-11.71C140.69,578.22,127.05,658.65,119.25,740.3ZM424.47,515.84a98.07,98.07,0,0,1-9.78,11.9,2.84,2.84,0,0,0-.86,3.17c3.36,12.58,6.66,25.17,9.8,37.83q12,48.46,23.87,97c3.4,14,6.49,28.09,9.77,42.13,2.27,9.71,4.61,19.4,6.92,29.1l.91-.27C454.8,662.39,438.93,589.58,424.47,515.84Zm-254.71-.94C155.35,589.15,139.5,662.29,129.48,737a151.37,151.37,0,0,0,4.26-14.79c9.18-40.94,18.85-81.7,28.67-122.41,5.65-23.41,11.75-46.67,17.66-70,.36-1.43,1-2.8-.2-4.09ZM140.47,733.09c.46-1.33,1-2.64,1.38-4,5.69-18.5,10.75-37.25,16-55.93,8-28.38,16.34-56.63,24.62-84.9,4-13.65,8.19-27.22,12.3-40.82.49-1.62,1.14-3.18-.21-4.72-2.49-2.82-4.93-5.71-7.39-8.58-1.23-1.44-1.72-1-2.17.91-3.5,14.79-7.14,29.52-10.64,44.3-10.71,45.24-22.17,90.23-31.14,136C142.1,721.22,140.63,727,140.47,733.09Zm314.31,5.37c-12-68.38-30.23-134.64-45.9-202.16-3.49,3.46-5.88,7.31-8.55,10.83a3.72,3.72,0,0,0-.59,3.93c7.22,21,12.84,42.64,19.16,64q16.25,54.91,31.59,110.2C451.73,729.72,452.54,734.41,454.78,738.46ZM200.53,548.91c-17.26,61.8-36.24,121.94-50.29,184.06,1.39-1.06,1.68-2.8,2.18-4.35,8.69-27.28,17.83-54.34,27.13-81.32,9.7-28.13,18.8-56.57,29-84.47.66-1.81.65-3.09-.6-4.56C205.55,555.49,203.34,552.5,200.53,548.91ZM435.32,740.69c.5-1.35-.1-2.11-.33-2.94-4.91-17.64-10.66-34.88-16.42-52.13C407,651,396,616.2,383.68,582c-1-2.8-2.19-5.5-3.29-8.25-2.29,1.69-3.79,4.31-5.48,6.69-3.37,4.75-3.31,4.72-.89,10.21,9.51,21.57,18.3,43.57,27.08,65.57s17.63,44,26.56,65.95C430.16,728.26,432,734.79,435.32,740.69Zm-19.74,6,.53-.3c-1.85-4.71-3.52-9.54-5.58-14.11-7.82-17.38-15.4-34.92-23.31-52.24-10.83-23.73-21.34-47.67-33.53-70.46-.81-1.51-1-1.9-2.09-.4-1.54,2.18-3.26,4.17-4.9,6.23-3.66,4.61-3.62,4.58-.51,9.91,9.53,16.38,19.6,32.27,29,48.79,9.2,16.24,18.44,32.45,27.31,49C406.74,731,411.2,738.82,415.58,746.69ZM157.93,737l.91.4c1.08-2.62,2.23-5.2,3.24-7.86,11.4-30,23.22-59.73,35.08-89.46,8.21-20.57,16.31-41.2,24.46-61.81.36-.91,1-1.92.31-2.82-2.66-3.3-5.4-6.5-8.23-9.89C195.65,623.19,174.8,679.16,157.93,737Zm18.64,3.1a1.68,1.68,0,0,0,1.78-1.19c6.21-11.75,12.49-23.46,18.62-35.27,10.76-20.74,21.38-41.58,32.14-62.31,5.48-10.56,11.12-21,16.74-31.45.94-1.74,1-2.94-.34-4.42-1.79-2-3.4-4.31-5-6.53-.85-1.14-1.38-1.64-2.19.2-5.5,12.5-11.1,25-16.64,37.43-9.42,21.25-18.76,42.56-28.27,63.75C187.53,713.33,182.11,726.59,176.57,740.1Zm7.78,5.95.68.54a8.33,8.33,0,0,0,1-1.13c4.76-7.83,9.67-15.54,14.24-23.53,13-22.78,26.53-45.16,40.1-67.47,6-9.87,12.15-19.6,18.23-29.39.6-1,1.42-1.73.25-3.15-2.47-3-4.74-6.16-7.36-9.62C228.83,657.41,206.16,701.42,184.35,746.05Zm140.9-336.18c-4,9.77-7.43,19.05-11.57,27.82-2.08,4.39-1.87,7.62.1,11.76,3.33,7,6.2,14.25,9.35,21.63,4.22-8.37,8.33-16.55,12.44-24.72a4.16,4.16,0,0,0,.14-3.28C332.29,432.24,328.88,421.4,325.25,409.87Zm-30.75,3.76c-4.24,11.95-8.57,23.08-13,34.15a2.56,2.56,0,0,0,.21,2.25L293,473.22c4.15-9.45,8.11-18.54,12.13-27.6a5.35,5.35,0,0,0-.07-4.51C301.65,432.22,297.81,423.55,294.5,413.63Zm84,70.54c4.18-7,8.38-13,12.64-18.95.9-1.25.33-2.36,0-3.51-1.46-6-3-12-4.4-18-1.32-5.6-2.53-11.24-3.91-17.42-4.63,8.59-8.95,16.62-13.28,24.64a3.27,3.27,0,0,0-.11,2.84C372.56,463.52,375.93,473.19,378.46,484.17ZM263.77,421.43c-3.87,11.35-7.56,22.18-11.28,33a4.14,4.14,0,0,0,.65,3.76c3.12,5.45,6.16,11,9.25,16.43.39.69.54,1.77,1.47,1.71,3.56-8.1,7.07-16.17,10.65-24.2a7,7,0,0,0,0-6.35C270.9,437.93,267.5,429.92,263.77,421.43Zm90.87-2.8c-4.21,8.41-8.13,16.22-12,24.05-.57,1.13-1.24,2.17-.66,3.78,3.28,9.05,6.46,18.16,9.85,27.74,4.05-7.23,7.84-14,11.65-20.78a3.17,3.17,0,0,0,.14-2.61C360.48,440.41,357.42,430,354.64,418.63ZM306.94,502c4.16-8,8-15.47,11.84-22.93a3.82,3.82,0,0,0,.27-3.52c-3.41-8.25-6.72-16.55-10.3-25.44-3.88,10.28-8.18,19.62-12.31,29.08a2.3,2.3,0,0,0,.21,2.2ZM249.8,462c-3.88,11.47-7.72,22.85-11.56,34.22-.38,1.12-1.23,2.23-.36,3.48,3.26,4.69,6.54,9.35,9.9,14.14C252,504.17,256,495,260,485.83c.6-1.36,1.1-2.56.27-4.11C256.74,475.14,253.26,468.5,249.8,462Zm-69.94,4.61c-2.93,13.88-5.7,27-8.47,40.05a3.61,3.61,0,0,0,1,3.62c2.75,2.8,5.43,5.7,8.07,8.63,1.27,1.4,1.88,1.9,2.55-.76,2.4-9.58,5.05-19.07,7.54-28.62.43-1.65,1-3.25-.24-5.1C186.71,478.81,183,473.32,179.86,466.57Zm156.62,34.89c3.82-6.82,7.52-13.41,11.18-20,.6-1.08.15-2.14-.23-3.24-3-8.66-6-17.35-9.15-26.38-4,8.36-7.84,16.55-11.74,24.71a3.06,3.06,0,0,0,.27,2.86C330,486.6,333.14,493.83,336.48,501.46Zm-58.57,2.42c3.95-8.18,7.64-15.86,11.37-23.51a2.23,2.23,0,0,0,0-2.18c-3.5-7.39-7-14.81-10.63-22.61-3.9,9.43-7.59,18.38-11.33,27.3a2.18,2.18,0,0,0,.39,2.16C271,491.16,274.33,497.25,277.91,503.88Zm44.66-20.14C319,491.58,315.1,499,311,506.2a2.91,2.91,0,0,0-.27,3.12c3.23,6.25,6.35,12.58,9.73,19.31,4.05-6.78,7.78-13.08,11.57-19.33.84-1.39.48-2.56-.06-3.82ZM264.34,490c-4.21,9.83-8.21,19.24-12.27,28.62a2.15,2.15,0,0,0,.45,2.42c2.68,3.85,5.41,7.64,8,11.54,1.14,1.69,1.67,1,2.43-.41,3.54-6.75,7.14-13.46,10.72-20.18.58-1.07,1.17-2.17.48-3.47C271,502.52,267.79,496.51,264.34,490Zm146-46.34-.83-.63a5.42,5.42,0,0,1-.38,1.33c-3.46,5.85-6.87,11.75-10.76,17.21a4.93,4.93,0,0,0-.71,4.44c2.22,8.26,4.34,16.55,6.56,25,3.85-5.22,7.6-10.33,11.39-15.39a3.7,3.7,0,0,0,.48-3.19Q413.22,458.1,410.32,443.69Zm-44.47,15.62c-3.32,6.1-6.15,11.94-9.54,17.26-1.89,3-1.78,5.18-.57,8.28,2.75,7,5.21,14.28,7.94,21.87,3.45-5.38,6.56-10.25,9.69-15.09a4,4,0,0,0,.65-3.48C371.32,478.66,368.64,469.17,365.85,459.31Zm-73.09,26.77c-3.49,8-7,15.28-10.74,22.36a3.3,3.3,0,0,0,.1,3.7c3.24,5.26,6.46,10.56,9.75,16,3.7-5.67,6.83-11.52,10.09-17.26a5.27,5.27,0,0,0,0-5.6C298.91,499.08,296,492.81,292.76,486.08Zm-100-5.74,6.49-23.56a3.27,3.27,0,0,0-.34-2.9Q193.44,446,188,438.12c-1.26-1.84-1.9-1.92-2.41.65-1.56,7.85-3.22,15.67-4.9,23.47a3.62,3.62,0,0,0,.71,3.41A178.35,178.35,0,0,1,192.76,480.34Zm2.88,12.75c-2.77,10.7-5.4,20.93-8.08,31.14a3.41,3.41,0,0,0,.85,3.6q3.92,4.23,7.67,8.68c1.16,1.37,1.75,1.3,2.3-.6q3.6-12.24,7.31-24.43a4.24,4.24,0,0,0-.64-4.06C201.91,502.86,198.42,498.65,195.64,493.09ZM388,514.38c3.63-5.21,6.92-10.53,10.85-15.14.88-1,.49-2.11.24-3.17-2-8.5-3.95-17-6.08-26.09-4.18,6.89-8.05,13.33-12,19.71-.72,1.17-.37,2.13,0,3.18C383.34,500,385.65,507,388,514.38Zm-37.51-26.71-10.86,19.4a2.71,2.71,0,0,0-.14,2.58c2.75,6.26,5.5,12.51,8.2,18.8.47,1.09.82,1.5,1.57.35,3.09-4.77,6.18-9.54,9.33-14.27a3.26,3.26,0,0,0,.4-3.16ZM278.05,516.1c-3.72,8.19-8,15.42-11.83,23a2.18,2.18,0,0,0,.23,2.48c3.13,4.37,6.22,8.79,9.42,13.32,3.88-6.45,7.65-12.73,11.45-19,.66-1.09,1-2,.22-3.32C284.41,527.3,281.4,521.93,278.05,516.1Zm139.43-36.34c-3.88,5.86-7.12,11.63-11.08,16.68a3.37,3.37,0,0,0-.4,2.93c2,7.79,4,15.55,6.16,23.8L422.63,511a2.79,2.79,0,0,0,.67-2.7C421.34,499,419.5,489.72,417.48,479.76ZM203.75,461c-2.12,8.32-4.11,16.25-6.18,24.15a4.24,4.24,0,0,0,.5,3.69c3.07,5.11,6.77,9.52,10.09,14.61,2.4-7.83,4.74-15.41,7.05-23a3.15,3.15,0,0,0-.21-3.13C211.25,472,207.61,466.57,203.75,461Zm102.76,53.43c-.39.64-.63,1-.83,1.38-3.08,5.87-5.84,12-9.7,17.24-1,1.37-.38,2.48.32,3.65,2.71,4.55,5.46,9.07,8.06,13.71.85,1.53,1.21,1.18,2,0,2.92-4.64,5.84-9.3,8.91-13.79a3.62,3.62,0,0,0,.29-4.43C312.53,526.45,309.68,520.66,306.51,514.38Zm28.86.14C332,521.47,328,527,324.6,533c-.63,1.13-1.25,2-.31,3.6A134.58,134.58,0,0,1,332,551c.56,1.3,1.14,1.79,2,.39q4.58-7,9.19-14a3.29,3.29,0,0,0,.49-3.19C341,527.87,338.33,521.51,335.37,514.52Zm-43.8,25.92c-4,6.62-7.71,12.89-11.5,19.1a2.25,2.25,0,0,0,.34,3,99,99,0,0,1,7.94,11.61c1,1.78,1.64,1.52,2.64-.07,3.08-4.91,5.94-10,9.52-14.48,1.11-1.36.62-2.5,0-3.65C297.59,550.86,294.68,545.84,291.57,540.44ZM222,524.12c2.85-7.86,5.59-15.47,8.37-23.06.5-1.35-.18-2.16-.78-3-2.71-4-5.47-7.87-8.13-11.89-1.27-1.93-1.73-1.41-2.3.62q-3,10.85-6.25,21.61a3,3,0,0,0,.46,3C216.23,515.48,219,519.65,222,524.12Zm13-18.7c-3,8.08-5.36,16-8.62,23.51a2.45,2.45,0,0,0,.35,2.76q3.83,5.05,7.61,10.15c1,1.42,1.6.92,2.22-.55q4-9.62,8.17-19.15a2.65,2.65,0,0,0-.36-3C241.3,514.71,238.28,510.21,235,505.42Zm138.64,29.39c3-4.07,5.82-7.67,8.47-11.4a4.2,4.2,0,0,0,.93-3.78c-2.39-7.28-4.08-14.9-6.92-22.17l-9.45,14.84a2.9,2.9,0,0,0-.3,2.84C368.78,521.46,371.09,527.82,373.66,534.81Zm-53.94,6c-3.44,5.14-6.68,9.9-9.82,14.75-.6.92-1.7,1.78-.62,3.52,2.66,4.29,5.15,8.74,7.6,13.2.84,1.51,1.35,1.44,2.24.12,2.88-4.23,5.78-8.46,8.78-12.56.93-1.28.62-2,0-3.23C325.13,551.38,322.48,546.12,319.72,540.76Zm77.11.57c3.16-3.51,6.3-7,9.42-10.46a2.25,2.25,0,0,0,.72-2.11c-1.92-7.93-3.85-15.86-5.89-24.26-3.51,5.34-6.72,10.24-10,15.11a2.85,2.85,0,0,0-.4,2.55C392.8,528.75,394.91,535.32,396.83,541.33ZM259,540.74a6.21,6.21,0,0,0-.46-1q-4.14-6.06-8.31-12.11c-1.18-1.71-1.76-.43-2.22.73-1.26,3.18-2.43,6.42-3.67,9.61-1.48,3.78-4.57,7.89-4.07,11.22.55,3.6,4.43,6.47,6.86,9.66a2.35,2.35,0,0,1,.19.25c1,1.7,1.71,1.5,2.6-.33,2.75-5.71,5.66-11.32,8.5-17C258.63,541.47,258.83,541.1,259,540.74Zm-48.8-24.13c-2.47,8.7-4.88,17.16-7.29,25.61a1.86,1.86,0,0,0,.34,1.86c2.3,2.71,4.63,5.39,6.89,8.15,1,1.25,1.43.79,1.93-.59,2.34-6.35,4.74-12.66,7.13-19a3.63,3.63,0,0,0-.37-3.75C216,525,213.23,520.92,210.22,516.61Zm95,47.44c-1.17,0-1.32.79-1.66,1.31-3.15,4.86-6.25,9.77-9.48,14.55a2.12,2.12,0,0,0,.1,2.9c2.47,3.62,5,7.22,7.27,11,1,1.69,1.6.94,2.35-.12,3.05-4.38,6.07-8.8,9.18-13.12.75-1,.45-1.62,0-2.63-2.08-4.52-4.85-8.46-7.16-12.77Zm56.59-43.67c-3.32,5-6.31,9.52-9.38,14a4,4,0,0,0-.42,4.57c2.15,4.54,4.11,9.22,6,13.91.7,1.7,1.19,1.6,2.14.28q3.91-5.43,8-10.69a3.59,3.59,0,0,0,.52-3.75C366.41,532.7,364.15,526.71,361.77,520.38Zm-85.72,77.49c3.17-5.14,6.25-10.16,9.36-15.15.65-1,.07-1.76-.36-2.43-2.63-4-5.33-8-7.95-12.06-1-1.57-1.66-1.3-2.48.2-2.66,4.85-5.32,9.7-8.08,14.46a2.41,2.41,0,0,0,.31,3.22C269.87,589.89,272.83,593.74,276.05,597.87ZM263,547c-.69,0-.91.58-1.13,1-2.86,5.91-5.69,11.84-8.58,17.72a2,2,0,0,0,.22,2.41c2.48,3.14,4.93,6.31,7.41,9.43.4.5.82,1.39,1.52.14q4.45-7.92,9-15.75a2.44,2.44,0,0,0-.17-3c-2.51-3.57-4.95-7.22-7.42-10.83C263.61,547.75,263.29,547.35,263,547Zm81.68,27.24a7,7,0,0,0,.76-.77c2.88-3.79,5.73-7.6,8.61-11.38.72-.94.51-1.75.07-2.77q-3.28-7.56-6.45-15.2c-.63-1.53-1.09-1.48-1.93-.2-2.88,4.38-5.8,8.71-8.74,13a2.24,2.24,0,0,0-.13,2.7c2.31,4.44,4.51,9,6.77,13.43C343.9,573.54,343.93,574.24,344.71,574.25Zm38.09-14c3.15-3.91,6-7.5,8.93-11.07a2.56,2.56,0,0,0,.42-2.53c-2-6.34-4.12-12.68-6.22-19.17-3.28,4.35-6.43,8.59-9.62,12.77a2.21,2.21,0,0,0-.26,2.45C378.26,548.41,380.42,554.09,382.8,560.3ZM223.66,537.1c-2.37,6.84-4.55,13.26-6.86,19.62a3.17,3.17,0,0,0,.51,3.62c2.23,2.63,4.38,5.37,6.53,8.09.71.9,1.1,1.41,1.75-.22,2.16-5.46,4.43-10.86,6.76-16.22a3.44,3.44,0,0,0-.48-4C229.17,544.54,226.54,541,223.66,537.1Zm108.1,27.54a23.93,23.93,0,0,0-1.47,1.89,100.16,100.16,0,0,1-8.46,12c-1.15,1.36-.5,2.19.08,3.2,2,3.57,4.14,7.08,6.12,10.69.81,1.48,1.38,1.51,2.34.22q4.08-5.48,8.29-10.8a2.71,2.71,0,0,0,.25-3.31c-2-4.15-3.89-8.35-5.85-12.51C332.8,565.43,332.62,564.68,331.76,564.64Zm-6.64,35.13c-.26-.48-.47-.85-.68-1.22-2.22-4-4.46-7.93-6.64-11.93-.71-1.3-1.19-1-1.88,0-3.06,4.5-6.14,9-9.28,13.42a1.76,1.76,0,0,0-.05,2.53c2.21,3.13,4.31,6.37,6.38,9.63.86,1.35,1.49,1.83,2.62.3,2.82-3.86,5.77-7.59,8.66-11.38C324.56,600.72,324.81,600.25,325.12,599.77Zm44-21.31c2.91-3.72,5.67-7.27,8.44-10.82a2.3,2.3,0,0,0,.45-2.21,183.11,183.11,0,0,0-6.8-17.7c-3.16,4.35-6.07,8.39-9,12.39a2.3,2.3,0,0,0-.34,2.71C364.24,567.94,366.6,573.09,369.09,578.46Zm-70.73,22.42a3.5,3.5,0,0,0-.25-.76c-2.74-3.77-4.73-8.24-7.71-11.8-.95-1.13-1.19-.31-1.65.43-2.61,4.19-5.21,8.39-7.86,12.54a2.92,2.92,0,0,0,.1,3.88c2.2,2.82,4.3,5.76,6.35,8.74.79,1.14,1.31,1.43,2.18.14,2.69-4,5.44-7.88,8.15-11.82A10.16,10.16,0,0,0,298.36,600.88Zm55.93-5c2.92-3.35,5.78-6.66,8.67-9.92a3.34,3.34,0,0,0,.56-4c-1.81-4.12-3.64-8.23-5.34-12.42-.72-1.78-1.29-1.87-2.37-.42-2.58,3.49-5.2,6.94-7.9,10.29-1.1,1.36-.59,2.37,0,3.61C350.09,587.39,352.2,591.7,354.29,595.93Zm-11.83-9.11c-3.38,4.38-6.58,8.57-9.83,12.68a2,2,0,0,0-.1,2.66,124.56,124.56,0,0,1,7,12c3.11-3.71,6.12-7.33,9.16-10.89,1-1.15,1-2.09.24-3.54C346.71,595.58,344.7,591.32,342.46,586.82ZM272.09,604c0-1.24-.7-1.65-1.11-2.24-2.28-3.21-4.67-6.3-6.85-9.59-1.1-1.64-1.66-1.3-2.44.22-2.18,4.27-4.36,8.54-6.63,12.74-.77,1.43-.3,2.21.52,3.2,2.2,2.67,4.42,5.33,6.44,8.19,1.1,1.54,1.68.88,2.38-.22q3.47-5.42,6.91-10.86C271.64,604.93,271.91,604.35,272.09,604Zm-22.24-31.23c-.32.57-.53.9-.69,1.26-2.31,5.21-4.61,10.44-6.93,15.65a2,2,0,0,0,.5,2.38c2.16,2.7,4.33,5.39,6.39,8.2,1,1.39,1.41.8,2-.38q3.54-6.6,7.18-13.1a2,2,0,0,0-.12-2.6c-2.51-3.24-4.9-6.62-7.33-10C250.59,573.84,250.31,573.43,249.85,572.79Zm-12.61-17.21c-2.46,6.17-4.78,11.88-7,17.65-.34.89-1.24,1.92-.23,3.08,2.48,2.84,4.95,5.71,7.5,8.67,2.44-5.31,4.91-10.67,7.38-16a2.86,2.86,0,0,0-.15-3.37C242.28,562.46,239.94,559.2,237.24,555.58Zm63.25,76a3.44,3.44,0,0,0,.67-.55l8.78-11.23c.55-.71.14-1.2-.24-1.75q-3.4-4.82-6.78-9.68c-.55-.79-1-1.33-1.77-.24-2.61,3.63-5.29,7.19-7.91,10.79a2.61,2.61,0,0,0,0,3.55c1.88,2.42,3.57,5,5.39,7.52C299.15,630.69,299.61,631.49,300.49,631.62Zm25.42-1c.35-.37.8-.78,1.19-1.25,2.23-2.65,4.39-5.38,6.68-7.93,1.35-1.5,1.26-2.76.24-4.42-1.74-2.83-3.45-5.71-5-8.73-.9-1.78-1.5-1.55-2.48-.23-2.46,3.32-4.94,6.61-7.49,9.83a2.27,2.27,0,0,0,0,3.19c1.88,2.71,3.64,5.53,5.45,8.31C324.88,629.9,325.07,630.63,325.91,630.61Zm-49.7-21.05c-.8.24-.95.92-1.26,1.48a77.45,77.45,0,0,1-6.58,10.33,2.1,2.1,0,0,0,.07,3.15c2.17,2.56,4.36,5.11,6.41,7.81,1,1.3,1.53.69,2.2-.25,2.33-3.32,4.63-6.66,7-9.93a1.68,1.68,0,0,0-.07-2.34c-2.38-3.12-4.74-6.25-7.11-9.37Zm37.7,15.29c-3,3.77-5.85,7.53-8.86,11.14a1.78,1.78,0,0,0,0,2.74c1.76,2.21,3.55,4.42,5.15,6.81,1.1,1.64,1.77,1.77,3,.15a106,106,0,0,1,6.91-8.1,2.19,2.19,0,0,0,.19-3.16Zm-25.08,1.95c-1.06.22-1.54,1.11-2.07,1.88a77.34,77.34,0,0,1-4.65,6.88c-1.85,2.16-2.37,3.68,0,5.77a30.48,30.48,0,0,1,4.24,5c1.12,1.53,1.94,1.73,3.12,0a86.32,86.32,0,0,1,5.59-7.3,2.53,2.53,0,0,0,.13-3.73c-1.85-2.45-3.61-5-5.43-7.48A11.86,11.86,0,0,0,288.83,626.8Zm10.76,34.31c1-1,2.06-2.12,3.07-3.3,5.27-6.18,5.74-4.1.33-11.21-.94-1.23-1.33-3.92-2.89-3.46-1.26.37-2.22,2.35-3.25,3.69-4.94,6.49-4.93,6.51.5,12.55C298,660.05,298.47,660.94,299.59,661.11ZM184.2,747.18l-.1.25h.18Z" transform="translate(-23.97 -277)" style="fill:#e64c8f"/><path d="M202,342.36l.19-1.74c.45.85.55,1.41-.07,1.86Z" transform="translate(-23.97 -277)" style="fill:#e64c8f"/><path d="M331.33,387.84l.1-.89.31.21c-.15.22-.29.44-.44.65Z" transform="translate(-23.97 -277)" style="fill:#e64c8f"/><path d="M243.53,449.18a1.27,1.27,0,0,1-.48-1.47h0c.52,0,.73.49.93,1Z" transform="translate(-23.97 -277)" style="fill:#e64c8f"/><path d="M243.05,447.71l-.38-.23c.35-.52.31,0,.39.22Z" transform="translate(-23.97 -277)" style="fill:#e64c8f"/><path d="M359.22,404.36l.25-.49c.25.47,0,.51-.29.44Z" transform="translate(-23.97 -277)" style="fill:#e64c8f"/><path d="M318.24,387.78l-.38,0,.11-.37.23.48Z" transform="translate(-23.97 -277)" style="fill:#e64c8f"/><path d="M485.58,747.81l.24.09-.2-.15Z" transform="translate(-23.97 -277)" style="fill:#fffeff"/></svg>