<svg id="Слой_1" data-name="Слой 1" xmlns="http://www.w3.org/2000/svg" viewBox="0 0 549.52 456.64"><path d="M487.36,714.42c.43-7.22-.76-14.34-1.34-21.5-.54-6.69-1.34-13.35-2-20-.81-7.62-1.61-15.23-2.5-22.84q-1.52-12.94-3.2-25.88c-1-8.06-2.12-16.11-3.21-24.16-1.58-11.78-3.11-23.58-4.79-35.35-1.71-12-3.6-23.9-5.36-35.85-1.46-9.9-2.85-19.8-4.3-29.7-1.57-10.74-3.19-21.48-4.75-32.22q-2.19-15.13-4.32-30.28-1.86-13.32-3.65-26.64-1.92-14.33-3.77-28.65c-.72-5.6-1.36-11.2-1.62-16.86q33.25,175,56.45,351.61c-.41-7.87.15-15.71-.32-23.53-.46-7.56-1-15.12-1.56-22.67q-1.08-15.3-2.18-30.6c-.58-7.92-1.13-15.84-1.83-23.75-.81-9.14-1.77-18.26-2.66-27.38-.81-8.28-1.61-16.56-2.45-24.84-1-10-2.08-19.94-3.1-29.91-.68-6.68-1.33-13.36-2-20-1.09-10.63-2.24-21.25-3.3-31.87-.86-8.57-1.61-17.14-2.43-25.7q-1.33-14-2.71-28c-.8-8.37-1.58-16.75-2.39-25.13-.89-9.13-1.88-18.25-2.68-27.39-.59-6.68-.94-13.39-1-20.12q26.57,183.24,42.46,367.73c.31-15.1.86-30.15.16-45.21-.39-8.33,0-16.7-.29-25q-.69-22.59-1.73-45.18c-.63-13.71-1.43-27.41-2.22-41.12q-1.36-23.53-2.86-47.06c-.92-14.75-1.74-29.5-2.88-44.23-1-12.65-1.46-25.33-2.24-38-1-16.16-2.13-32.31-2.93-48.48-.53-10.79-1.2-21.56-1.73-32.35-.34-6.81-.1-13.63-.88-21.19,1.54,3.28,1.13,6.11,1.43,8.76,1,9,1.6,18.09,2.47,27.13,1.21,12.62,2.57,25.22,3.78,37.83.72,7.54,1.25,15.09,1.9,22.62.69,8,1.45,16,2.14,24,.64,7.45,1.2,14.9,1.84,22.35.65,7.63,1.42,15.26,2,22.89.54,6.79.89,13.6,1.4,20.4.68,9.15,1.48,18.29,2.15,27.44.49,6.81.81,13.62,1.28,20.42.66,9.44,1.43,18.87,2.09,28.3.49,7.08.9,14.16,1.3,21.24q1.1,19.29,2.13,38.58c.43,7.75.93,15.51,1.26,23.27.67,15.61,1.41,31.22,2.75,46.79a32.28,32.28,0,0,0,.54,5.67c.41-5.11,1.07-10.22,1.19-15.35.32-14.69.72-29.39.92-44.09.24-17.46.34-34.92.18-52.37q-.42-43.11-1.14-86.23c-.29-19.34-.57-38.69-1.11-58-.48-17.44-.66-34.89-1.23-52.33-.42-13.18,0-26.37-.55-39.54-.63-16.32-.24-32.64-.36-48.95a10.21,10.21,0,0,1,.16-2.27c1.42,4.81,1,9.8,1.39,14.69.74,9.64.85,19.32,1.33,29,.62,12.39,1.41,24.77,2,37.16.55,11.07.91,22.15,1.42,33.23.62,13.34,1.26,26.68,1.77,40q1,25.14,1.64,50.3.66,26.14,1.73,52.3c.54,13.07.8,26.15,1.13,39.23q1,39.94,2.31,79.89c.47,13.83,1.12,27.65,1.07,42.1,1.49-2.28,1.44-4.4,1.56-6.31.69-10.78,1.43-21.55,1.91-32.34.63-14,1.18-28,1.74-42,.59-14.78.79-29.56,1.14-44.35.56-24.18.81-48.37,1.24-72.56.22-12.23-.06-24.48.51-36.7.64-13.75.24-27.5.52-41.25.48-23.42.69-46.85,1.18-70.28.43-20.76,1-41.52,1.65-62.27a121.64,121.64,0,0,1,1.3-15c.09,2,.25,3.94.27,5.91.25,24.29.3,48.57.79,72.85.44,22.58.13,45.16.53,67.74.76,42.31.24,84.63.57,126.94.23,30.65.26,61.3.55,91.94.19,19.35.68,38.69,1.07,58,.08,3.88.35,7.76.56,11.64,0,.52-.14,1.18.89,1.56.45-3.86,1-7.62,1.3-11.4,1.16-13.38,2.32-26.77,3.33-40.16.56-7.55.86-15.12,1.23-22.69,1-20.26,2-40.51,2.43-60.8.21-10.32.73-20.64,1-31q.69-23.88,1.24-47.77c.39-16,.63-32.05,1.12-48.07.4-13.47.18-26.94.65-40.4.33-9.48.23-19,.45-28.45.4-17.53.76-35.07,1.25-52.6.46-16.78,1.05-33.55,1.64-50.32a53.9,53.9,0,0,1,.75-6.43q.84,12.94.87,25.88.08,35.71.29,71.44c.42,57.12.62,114.24,0,171.35-.62,61.58-.15,123.16-.3,184.74,0,2.69-.8,3.22-3.32,3.22q-75.45-.11-150.89,0a4.64,4.64,0,0,1-3.92-1.67c-14.3-16.08-28.55-32.2-43-48.1-11.05-12.12-21.91-24.41-33.19-36.33-12.77-13.49-25.23-27.28-37.78-41-1.15-1.26-1.73-1.67-3.18-.14C284.83,667.8,271.9,681,259.32,694.57c-15.23,16.4-30.2,33-45.26,49.57-10.15,11.15-20.4,22.21-30.29,33.59-2.6,3-5.16,3.87-8.94,3.86q-73.16-.18-146.32-.08c-5.16,0-4.54.56-4.5-4.59q.27-29.74.65-59.48c.35-27,.55-54.07,1.22-81.09.37-15.28-.06-30.55.49-45.82.75-20.48,0-41,.58-61.47.55-18.69.21-37.38.52-56.07.42-25.32.54-50.65,1.2-76,.27-10.43.1-20.86.73-31.29.42-6.89.14-13.82.29-20.73a58,58,0,0,1,1-9.33c.2,4,.51,7.95.58,11.93.29,17.16.35,34.34.83,51.5.33,11.48.21,23,.5,34.43.74,29.2.69,58.42,1.26,87.63.29,15,.13,30,.46,45,.56,24.85.7,49.7,1.18,74.55.21,11,.19,22,.47,33,.33,12.89.64,25.78,1.19,38.66q.9,21,2.27,42c.27,4.11.5,8.29,1.88,12.53,1.1-9,1.48-17.81,1.91-26.6.6-12.12.8-24.25,1.37-36.37.5-10.51.8-21,1.13-31.54.76-24.55,1.44-49.09,1.78-73.64.27-20.2.72-40.4,1.11-60.6q.84-44.52,1.72-89,.47-23.47,1.05-46.93c.31-12.13.64-24.26,1.13-36.39.37-9.37,1-18.72,1.52-28.09a5.42,5.42,0,0,1,.2-.94c2.87,139.83-.78,279.82,3.23,419.76,1.75-3.92,1.36-8.09,1.65-12.11C60,732.27,60.31,720.14,61,708c.67-12.49,1.45-25,2.15-37.47.26-4.63.35-9.28.5-13.92.43-12.69,1.15-25.36,1.46-38.06.38-15.63,1.09-31.25,1.68-46.88.48-12.68,1.12-25.36,1.68-38q.79-18,1.75-36.06c.85-15.89,1.52-31.79,2.22-47.69.75-17,1.68-34.06,2.28-51.11.51-14.57,1.45-29.13,2.25-43.7.4-7.37.9-14.73,1.72-22.11,0,1.62,0,3.24,0,4.86-.06,18.41.16,36.82-.27,55.22-.35,15.08-.23,30.17-.56,45.25-.39,17.73-.57,35.47-1.08,53.19-.36,12.7-.68,25.41-1.16,38.1Q74.36,562,73.83,594.44c-.31,21.43-.59,42.87-1.1,64.3-.35,15.18-.1,30.36-.56,45.53-.29,9.58-.63,19.13,0,28.7a2.18,2.18,0,0,0,.5,1.33c.83-9,1.81-18,2.45-27,1.09-15.4,1.88-30.82,2.95-46.21,1-14.83,1.94-29.67,2.85-44.51,1-16,2.53-31.88,3.76-47.83.69-9,1.17-18,1.86-26.93.83-10.75,1.83-21.5,2.67-32.26.52-6.7.81-13.42,1.31-20.12.66-9.06,1.45-18.11,2.13-27.16.47-6.32.94-12.64,1.24-19,.44-9.08,1.43-18.11,2.16-27.16.67-8.3,1.2-16.62,1.85-24.92.67-8.58,1.43-17.16,2.11-25.74.71-8.86,1.38-17.72,2.2-26.58.48,11.92-.14,23.82-.68,35.71-.27,5.87-.29,11.75-.62,17.62-.71,12.49-.83,25-1.38,37.51-.58,13.07-1.38,26.12-2.06,39.18-.45,8.51-.79,17-1.3,25.54-.86,14.56-1.43,29.13-2.67,43.67-.63,7.45-.86,14.94-1.29,22.41-.7,12-1.45,24-2.11,36-.5,9.09-.87,18.18-1.32,27.26-.68,13.43-1.51,26.85-2.06,40.29-.65,16.19-1.75,32.37-1.2,49.3a119.81,119.81,0,0,0,2.68-17.08c.92-8.17,1.87-16.34,2.71-24.52.88-8.56,1.6-17.13,2.45-25.7.84-8.37,1.73-16.74,2.61-25.11.82-7.7,1.64-15.41,2.51-23.11,1-9.3,2.18-18.59,3.21-27.89.88-8,1.6-16,2.49-24,1.17-10.61,2.47-21.21,3.66-31.83,1.09-9.77,2.11-19.55,3.18-29.32q1.47-13.53,3-27.06c1.06-9.29,2.12-18.59,3.27-27.88,1-7.78,2-15.54,3.09-23.31q1.86-13.9,3.7-27.8c1.1-8.34,2.15-16.69,3.2-25,.31-2.43.57-4.88.79-7.33a5.62,5.62,0,0,1,1.13-3.41c-.69,9.48-1.33,18.63-2.05,27.77-.58,7.45-1.25,14.9-1.91,22.35C124.18,405.57,123,418,122,430.45c-.82,9.42-1.53,18.85-2.4,28.26-.82,9-1.82,17.88-2.68,26.82-.84,8.77-1.56,17.54-2.42,26.3-1,10.82-2.18,21.64-3.28,32.45-.8,7.81-1.64,15.62-2.41,23.43-.87,8.74-1.65,17.5-2.7,26.23-1,8.44-1.66,16.94-2.42,25.41q-1.4,15.27-2.7,30.54c-.67,8-1.25,16-1.86,24.06-.73,9.43-1.47,18.86-2.14,28.3-.15,2.16,0,4.34,0,6.69,2.5-10.34,4.09-20.66,5.55-31,1.94-13.75,3.78-27.51,5.75-41.25,1.58-10.94,3.36-21.84,4.93-32.77,1.65-11.41,3.08-22.85,4.75-34.25,1.91-13,4-25.93,6-38.9,1.81-11.76,3.54-23.53,5.38-35.28,2.32-14.84,4.61-29.67,7.1-44.48,2.64-15.72,5.44-31.42,8.26-47.11,2.4-13.37,4.92-26.72,7.41-40.07.17-.91.51-1.79,1-3.49-.82,8.09-1.47,15.37-2.32,22.62-1,8.35-2.15,16.68-3.27,25q-1.77,13.2-3.6,26.39-2.45,17.55-4.92,35.08c-2.08,14.59-3.79,29.23-6.1,43.79-2,12.68-3.56,25.44-5.34,38.15-1.64,11.7-3.37,23.38-5,35.08-1.81,13.38-3.48,26.79-5.27,40.18-1.61,12.08-3.35,24.14-4.93,36.22-1.29,9.93-2.43,19.88-3.62,29.82-.46,3.85-.89,7.71-1.34,11.56a1.63,1.63,0,0,0,.59,1.85c1.64-7,3.39-13.57,4.73-20.25,2.92-14.62,5.67-29.27,8.41-43.92,3.32-17.81,6.51-35.64,9.85-53.45,2.22-11.86,4.55-23.71,6.91-35.55q5-24.84,10.06-49.65,6.67-32.41,14.32-64.62c5-20.92,9.57-41.93,14.81-62.79a4,4,0,0,1,1-2.24c.66,3.57-.61,6.77-1.16,10q-4.83,28.17-10.13,56.27c-2.53,13.45-5.38,26.83-8.11,40.24-1.37,6.75-2.74,13.5-4.2,20.23a2.27,2.27,0,0,0,.84,2.47c2.75,2.47,5.43,5,8.23,7.44,2.38,2.06,2.44,2,3.23-1q7.42-27.9,14.87-55.79c5.87-22,12.22-43.79,18.84-65.54.92-3,1.59-6.19,3.35-8.91l.12.1c-1.8,8.19-3.55,16.39-5.41,24.56q-5.62,24.82-11.37,49.63c-.16.7-.64,1.33.23,2A136.75,136.75,0,0,1,201,468c8.78-26.12,17.42-51.85,26.07-77.59.74,2.12,0,4-.5,5.85-4.39,16.68-8.79,33.36-13.34,50-2.24,8.18-4.78,16.29-7.26,24.4-.39,1.29-.6,2.42.42,3.41,4,3.88,7.34,8.35,11.28,12.71,10.41-28,20.52-55.76,33-82.64-1.3,4.4-2.56,8.82-3.91,13.21C239.4,441.26,231.5,465,222.9,488.43c-.82,2.24-.6,3.83,1,5.54,3,3.13,5.88,6.41,9,9.82,1.91-2.5,2.54-5.59,3.8-8.34,3.17-7,6-14.09,9.11-21.06,1.15-2.56.6-4.74-.53-7l.46-.43c1.51,1.83,2.37,1.55,3.34-.63q5.64-12.7,11.59-25.26a4.24,4.24,0,0,0-.16-4c-2-4.23-4.21-8.42-5.53-13.55a73.6,73.6,0,0,1,8,12.86c3.83-6.41,6.38-13.09,10.8-18.8-1.78,5-3.07,10.24-5.48,14.91-2.73,5.34-1.95,9.53,1.31,14.26s5.67,10,8.47,15.11c.94-.08.9-1,1.2-1.62,4.17-8.06,8.25-16.17,12.48-24.2a5,5,0,0,0,.22-4.56,72.31,72.31,0,0,1-2.6-7.73c2.4,1.87,3.35,4.76,5.21,7.17l4.86-8.45c.44,2.76-.91,4.93-2,7.07a7.73,7.73,0,0,0,.29,8.16c3.73,6.46,7,13.16,10.65,20.08,4.95-9,9.81-17.69,14.57-26.46.79-1.45-.32-2.89-.67-4.32-.84-3.45-2.43-6.74-2.35-10.4l0,.06c2.17,2,2.44,5,3.95,7.32.59.91,1,1.94,1.75,3.38,1.86-2.92,3.48-5.49,5.13-8.05.63-1,1-2.25,2.29-2.66l0,0a84.8,84.8,0,0,1-5.38,11.8c-.41.79-1.05,1.45-.53,2.59,4.17,9.19,8.24,18.41,12.44,27.82,4.45-6.79,8.79-13.43,13.15-20.06.74-1.13.17-2.14-.16-3.23-2.93-9.61-6-19.19-8.06-29.06,4.5,9.26,7.77,19,11.55,28.76,1.84-1.5,2.83-3.79,4.91-4.93l0,0c-.12,2.29-1.64,4-2.63,5.85-.53,1-1.15,1.95-.66,3.19,3.2,8.27,6.37,16.54,9.68,25.13,3-4.19,5.94-8.19,8.83-12.19.17-.23.22-.56.42-.74,5.09-4.39,4.64-9.45,2.92-15.46-3.89-13.6-7-27.41-10.42-41.14a1.52,1.52,0,0,1,.23-1.21c9.59,26.71,17.91,53.81,26.47,81.38,4.28-5.39,8.79-10.05,13.14-14.86.74-.82.24-1.75,0-2.69Q401.8,425,394.71,392.34a61.28,61.28,0,0,1-1.25-9.5c12.38,42.81,24.22,85.76,34.9,129.26,4.2-3,7.4-6.9,11.24-10.07.94-.78.48-1.91.29-2.94-3.7-19.94-7.47-39.87-11-59.84-2.78-15.51-5.53-31-7.86-46.61-1-6.42-2.45-12.8-2.37-19.38,1.74,3.76,2,7.89,2.95,11.85,2.73,11.75,5.21,23.57,7.74,35.37q6.85,32,13.65,63.92c.77,3.6,1.61,7.18,2.28,10.8.3,1.6.94,1.94,2.25,1.08s2.62-1.79,4.31-2.94c-.95,2.55-2.93,3.65-4.27,5.25a4.31,4.31,0,0,0-1,3.92c3.66,17.74,7.47,35.45,11,53.22,3.92,19.89,8.08,39.73,11.79,59.67,2.45,13.17,4.64,26.37,7.07,39.54,3.16,17.17,6.18,34.36,9.37,51.53.5,2.64.66,5.38,1.71,7.91l.2.12Zm-111,1.75c.1.24.16.62.5.19,0,0-.21-.24-.33-.37l-.5-.67-.41-.64c-.39-.4-.78-.8-1.18-1.19l-.48-.52a9.6,9.6,0,0,0-.85-1.46c-6.33-7.54-12.58-15.14-19-22.57-12.92-14.87-26-29.61-38.93-44.46-3.95-4.53-3.87-4.61-8-.06-.19.21-.4.4-.6.6-2.68,2.71-2.67,2.7.12,5.52q27.19,27.48,56.1,53.17c3.6,3.19,6.74,6.91,10.72,9.69l.61.52,1.1,1.18.64.5ZM205,720.07c.48-.09.66-.46.77-.88l.67-.46,12.39-13.29c8.87-9.48,17.82-18.9,26.59-28.46,11-12,22.16-23.94,33.63-35.54,4.9-5,5-4.87,0-9.87a13.28,13.28,0,0,1-1.38-1.43c-1-1.37-1.69-.87-2.56.2-9.93,12.19-19.93,24.32-29.85,36.52q-12.36,15.2-24.61,30.51A244.38,244.38,0,0,0,206,718.23l-.44.69a.89.89,0,0,0-.5,1.21c-.34-.09-.51,0-.32.35Zm188.5-2.27-.44-.7c-1.25-2-2.4-4.07-3.77-6-20.39-28.36-42-55.79-63.57-83.24-.73-.93-1.08-1.39-2.07-.3-2.17,2.38-4.42,4.69-6.71,6.95-1,.94-1,1.54,0,2.54q13.88,14.83,27.66,29.76c7.09,7.64,14.14,15.32,21.3,22.88,8.86,9.35,17.83,18.59,26.76,27.88l.66.51c.14.27.2.83.61.49S393.83,718,393.46,717.8ZM227.23,711a11.74,11.74,0,0,0,1.09-.89c9.33-9.31,18.5-18.78,28.22-27.69,11-10.12,22.14-20.17,33.15-30.32,5.59-5.16,5.5-5.2-.25-10.19-1.06-.92-1.5-.83-2.41.2-4.27,4.83-8.68,9.53-13,14.33-11.88,13.26-23.87,26.43-35.39,40-4,4.68-8.27,9.1-11.81,14.15-.31.25-1,.49-.53.93S227,711.37,227.23,711Zm-33.06,6.22c1.23-.11,1.62-1.24,2.23-2,6.07-7.4,12-14.87,18.11-22.28,10.08-12.31,20.1-24.68,30.33-36.86,8.6-10.23,17.45-20.25,26.22-30.33.8-.91,1.13-1.51,0-2.49-2.55-2.25-5-4.63-7.6-7.09-8.26,11.65-16.71,23.52-25.09,35.43-12.58,17.89-25.69,35.41-37.36,53.92-2.41,3.81-5.23,7.4-6.88,11.67-.16.09-.59.08-.15.4ZM168.6,705.35c1-.66,1.35-1.8,1.88-2.78q21.17-38.69,42.3-77.4,10.16-18.52,20.51-36.93c1.31-2.31,1.29-3.83-.91-5.44a25.15,25.15,0,0,1-5.54-5.51c-.49,1-.93,1.81-1.32,2.65-3.87,8.5-7.65,17-11.63,25.49-12,25.46-24.15,50.83-36,76.34-3.54,7.61-7.22,15.19-9.61,23.29l-.15.9C168.64,706,168.48,705.59,168.6,705.35Zm235.32,8.78c.31.49.54,1.08,1.31,1.07.17-.81-.44-1.07-.9-1.43a27.93,27.93,0,0,0-1.51-3.34q-9.66-15.69-19.41-31.35C376,667.21,368,655.75,360,644.22c-7.11-10.37-14.32-20.67-21.87-31.57-2.43,2.65-4.61,5.3-7.08,7.64-1.4,1.33-1.57,2.21-.34,3.7,5.75,7,11.41,14.15,17.13,21.21q19.13,23.61,38.27,47.18Q395,703.29,403.92,714.13Zm20.83-5.41.19.75c.09-.09.28-.24.27-.25-.13-.18-.29-.35-.44-.52a9.72,9.72,0,0,0-.33-1.64q-4.37-11.07-9.36-21.87c-12.73-27.54-25.54-55.05-38.77-82.35-2.76-5.7-5.77-11.28-8.6-17-.74-1.49-1.21-1.51-2.3-.23-2.09,2.46-4.31,4.8-6.62,7-1.22,1.19-1.16,2.12-.24,3.38,4.85,6.66,9,13.79,13.22,20.83,14.4,23.9,27.7,48.44,41.47,72.7C416.91,696.07,420.18,702.79,424.75,708.72Zm19.37-4.58.13,1.33c.2-.48.74-1.05-.15-1.31-1-6.83-3.28-13.34-5.43-19.85Q429,655,419,625.88c-7.86-22.93-15.9-45.8-23.87-68.69-.25-.73-.33-1.61-1.19-2.08-2.44,2.65-4.69,5.34-7.2,7.77-1.44,1.39-1.42,2.56-.65,4.22,3.65,7.88,7.38,15.73,10.75,23.73,5.74,13.65,11.21,27.43,16.86,41.13,7.73,18.76,15.54,37.5,23.29,56.25C439.25,693.59,441.21,699.08,444.12,704.14Zm-2.75-197.73-1.12-.49c-3.08,3.34-6.12,6.72-9.28,10a3.18,3.18,0,0,0-1,3.31c.86,3.28,1.76,6.55,2.59,9.84,6.12,24.42,12.3,48.82,18.31,73.26,7.26,29.47,13.62,59.15,20,88.82,1,4.77,2.34,9.47,3.51,14.21C467.93,638.25,453.23,572.57,441.37,506.41ZM119.25,708.21c1.44-5.84,3-11.65,4.3-17.52,4.6-20.43,9-40.9,13.72-61.3,5.23-22.7,10.38-45.43,16.17-68,3.57-13.87,6.82-27.84,10.76-41.62.34-1.19.52-2.16-.5-3.1-3.37-3.12-6.7-6.29-10.31-9.69C140.69,574.13,127.05,640.67,119.25,708.21ZM424.47,522.53a86.79,86.79,0,0,1-9.78,9.85,2.11,2.11,0,0,0-.86,2.62c3.36,10.4,6.66,20.82,9.8,31.29q12,40.1,23.87,80.23c3.4,11.58,6.49,23.24,9.77,34.86,2.27,8,4.61,16,6.92,24.07l.91-.22C454.8,643.77,438.93,583.53,424.47,522.53Zm-254.71-.78c-14.41,61.43-30.26,121.93-40.28,183.73a108,108,0,0,0,4.26-12.23c9.18-33.86,18.85-67.58,28.67-101.26,5.65-19.37,11.75-38.61,17.66-57.91.36-1.17,1-2.31-.2-3.38Zm-29.29,180.5c.46-1.1,1-2.18,1.38-3.3,5.69-15.3,10.75-30.82,16-46.27,8-23.48,16.34-46.85,24.62-70.23,4-11.29,8.19-22.52,12.3-33.77.49-1.34,1.14-2.63-.21-3.91-2.49-2.33-4.93-4.72-7.39-7.09-1.23-1.19-1.72-.84-2.17.75-3.5,12.23-7.14,24.42-10.64,36.65-10.71,37.42-22.17,74.64-31.14,112.55C142.1,692.43,140.63,697.17,140.47,702.25Zm314.31,4.44c-12-56.57-30.23-111.37-45.9-167.23-3.49,2.86-5.88,6-8.55,9a2.66,2.66,0,0,0-.59,3.25C407,569,412.58,586.94,418.9,604.61q16.25,45.42,31.59,91.16C451.73,699.46,452.54,703.34,454.78,706.69ZM200.53,549.89C183.27,601,164.29,650.76,150.24,702.15c1.39-.87,1.68-2.32,2.18-3.6,8.69-22.56,17.83-44.95,27.13-67.27,9.7-23.27,18.8-46.8,29-69.88.66-1.5.65-2.56-.6-3.77C205.55,555.33,203.34,552.86,200.53,549.89ZM435.32,708.54c.5-1.12-.1-1.75-.33-2.44-4.91-14.59-10.66-28.85-16.42-43.12C407,634.37,396,605.55,383.68,577.24c-1-2.32-2.19-4.55-3.29-6.83-2.29,1.4-3.79,3.57-5.48,5.54-3.37,3.92-3.31,3.9-.89,8.44,9.51,17.84,18.3,36,27.08,54.25s17.63,36.41,26.56,54.55C430.16,698.25,432,703.66,435.32,708.54Zm-19.74,5,.53-.25c-1.85-3.89-3.52-7.89-5.58-11.67-7.82-14.38-15.4-28.89-23.31-43.22-10.83-19.63-21.34-39.43-33.53-58.28-.81-1.25-1-1.58-2.09-.33-1.54,1.8-3.26,3.44-4.9,5.15-3.66,3.81-3.62,3.79-.51,8.2,9.53,13.54,19.6,26.69,29,40.36,9.2,13.43,18.44,26.84,27.31,40.5C406.74,700.54,411.2,707,415.58,713.5Zm-257.65-8,.91.32c1.08-2.16,2.23-4.3,3.24-6.49,11.4-24.81,23.22-49.42,35.08-74,8.21-17,16.31-34.09,24.46-51.13.36-.76,1-1.59.31-2.34-2.66-2.73-5.4-5.37-8.23-8.18C195.65,611.33,174.8,657.63,157.93,705.49Zm18.64,2.56a1.68,1.68,0,0,0,1.78-1c6.21-9.72,12.49-19.4,18.62-29.17,10.76-17.16,21.38-34.4,32.14-51.55,5.48-8.74,11.12-17.37,16.74-26,.94-1.44,1-2.43-.34-3.66-1.79-1.69-3.4-3.56-5-5.4-.85-.95-1.38-1.36-2.19.16-5.5,10.35-11.1,20.64-16.64,31-9.42,17.58-18.76,35.2-28.27,52.74C187.53,685.9,182.11,696.87,176.57,708.05Zm7.78,4.92.68.45a8.11,8.11,0,0,0,1-.94c4.76-6.47,9.67-12.86,14.24-19.47,13-18.84,26.53-37.35,40.1-55.81,6-8.16,12.15-16.21,18.23-24.31.6-.8,1.42-1.43.25-2.61-2.47-2.45-4.74-5.09-7.36-7.95C228.83,639.64,206.16,676.05,184.35,713Zm140.9-278.1c-4,8.08-7.43,15.76-11.57,23-2.08,3.64-1.87,6.31.1,9.73,3.33,5.76,6.2,11.79,9.35,17.89,4.22-6.92,8.33-13.69,12.44-20.44a2.92,2.92,0,0,0,.14-2.72C332.29,453.38,328.88,444.41,325.25,434.87ZM294.5,438c-4.24,9.89-8.57,19.1-13,28.25a1.81,1.81,0,0,0,.21,1.86L293,487.27c4.15-7.81,8.11-15.34,12.13-22.83a3.74,3.74,0,0,0-.07-3.73C301.65,453.35,297.81,446.19,294.5,438Zm84,58.35c4.18-5.82,8.38-10.77,12.64-15.68.9-1,.33-1.94,0-2.9-1.46-5-3-9.92-4.4-14.9-1.32-4.64-2.53-9.3-3.91-14.41l-13.28,20.38a2.29,2.29,0,0,0-.11,2.35C372.56,479.25,375.93,487.25,378.46,496.33Zm-114.69-51.9c-3.87,9.39-7.56,18.35-11.28,27.31-.52,1.24,0,2.12.65,3.11,3.12,4.51,6.16,9.07,9.25,13.59.39.57.54,1.46,1.47,1.42,3.56-6.71,7.07-13.38,10.65-20a4.88,4.88,0,0,0,0-5.25C270.9,458.08,267.5,451.46,263.77,444.43Zm90.87-2.31c-4.21,6.95-8.13,13.41-12,19.89-.57.94-1.24,1.8-.66,3.13,3.28,7.49,6.46,15,9.85,22.94,4.05-6,7.84-11.58,11.65-17.19a2.2,2.2,0,0,0,.14-2.15C360.48,460.13,357.42,451.51,354.64,442.12Zm-47.7,68.95c4.16-6.65,8-12.8,11.84-19a2.67,2.67,0,0,0,.27-2.9c-3.41-6.83-6.72-13.7-10.3-21.05-3.88,8.5-8.18,16.23-12.31,24.05a1.64,1.64,0,0,0,.21,1.83C300,499.51,303.28,505,306.94,511.07ZM249.8,478c-3.88,9.49-7.72,18.9-11.56,28.31-.38.93-1.23,1.84-.36,2.88,3.26,3.88,6.54,7.73,9.9,11.7,4.21-8,8.21-15.56,12.24-23.14.6-1.13,1.1-2.12.27-3.4C256.74,488.86,253.26,483.37,249.8,478Zm-69.94,3.81c-2.93,11.49-5.7,22.31-8.47,33.14a2.65,2.65,0,0,0,1,3c2.75,2.31,5.43,4.71,8.07,7.14,1.27,1.16,1.88,1.57,2.55-.63,2.4-7.93,5.05-15.77,7.54-23.68.43-1.36,1-2.68-.24-4.21A125.83,125.83,0,0,1,179.86,481.77Zm156.62,28.87c3.82-5.65,7.52-11.1,11.18-16.57.6-.9.15-1.78-.23-2.68-3-7.17-6-14.36-9.15-21.82-4,6.91-7.84,13.68-11.74,20.44-.53.91-.14,1.6.27,2.36C330,498.34,333.14,504.32,336.48,510.64Zm-58.57,2c3.95-6.77,7.64-13.12,11.37-19.45a1.58,1.58,0,0,0,0-1.81c-3.5-6.11-7-12.24-10.63-18.7-3.9,7.8-7.59,15.21-11.33,22.59-.41.8.07,1.29.39,1.78C271,502.12,274.33,507.15,277.91,512.64ZM322.57,496c-3.59,6.48-7.47,12.6-11.59,18.58a2.06,2.06,0,0,0-.27,2.57c3.23,5.18,6.35,10.41,9.73,16,4.05-5.6,7.78-10.82,11.57-16,.84-1.15.48-2.12-.06-3.16Zm-58.23,5.2c-4.21,8.14-8.21,15.92-12.27,23.68-.48.9,0,1.42.45,2,2.68,3.18,5.41,6.32,8,9.55,1.14,1.39,1.67.86,2.43-.34,3.54-5.59,7.14-11.14,10.72-16.7.58-.89,1.17-1.8.48-2.87C271,511.51,267.79,506.54,264.34,501.18Zm146-38.34-.83-.52a4,4,0,0,1-.38,1.11c-3.46,4.84-6.87,9.71-10.76,14.23a3.53,3.53,0,0,0-.71,3.68c2.22,6.83,4.34,13.69,6.56,20.72,3.85-4.32,7.6-8.55,11.39-12.73a2.65,2.65,0,0,0,.48-2.65Q413.22,474.76,410.32,462.84Zm-44.47,12.93c-3.32,5-6.15,9.88-9.54,14.28-1.89,2.45-1.78,4.28-.57,6.84,2.75,5.84,5.21,11.82,7.94,18.09,3.45-4.44,6.56-8.47,9.69-12.48a2.83,2.83,0,0,0,.65-2.88C371.32,491.78,368.64,483.93,365.85,475.77Zm-73.09,22.15c-3.49,6.58-7,12.63-10.74,18.49a2.35,2.35,0,0,0,.1,3.06c3.24,4.35,6.46,8.73,9.75,13.2,3.7-4.7,6.83-9.54,10.09-14.28a3.73,3.73,0,0,0,0-4.63C298.91,508.66,296,503.48,292.76,497.92Zm-100-4.76,6.49-19.49a2.29,2.29,0,0,0-.34-2.39c-3.65-4.34-7.3-8.67-10.91-13-1.26-1.53-1.9-1.59-2.41.54-1.56,6.49-3.22,13-4.9,19.41a2.61,2.61,0,0,0,.71,2.82A154.25,154.25,0,0,1,192.76,493.16Zm2.88,10.55c-2.77,8.86-5.4,17.32-8.08,25.76a2.5,2.5,0,0,0,.85,3q3.92,3.51,7.67,7.18c1.16,1.14,1.75,1.08,2.3-.5,2.4-6.75,4.82-13.49,7.31-20.2a3,3,0,0,0-.64-3.37C201.91,511.79,198.42,508.31,195.64,503.71ZM388,521.32c3.63-4.31,6.92-8.7,10.85-12.52.88-.86.49-1.75.24-2.63-2-7-3.95-14.05-6.08-21.58-4.18,5.71-8.05,11-12,16.31-.72,1-.37,1.76,0,2.63C383.34,509.39,385.65,515.25,388,521.32Zm-37.51-22.09-10.86,16a1.9,1.9,0,0,0-.14,2.13c2.75,5.18,5.5,10.35,8.2,15.55.47.9.82,1.24,1.57.29,3.09-3.94,6.18-7.89,9.33-11.8a2.32,2.32,0,0,0,.4-2.62Zm-72.48,23.52c-3.72,6.77-8,12.75-11.83,19a1.57,1.57,0,0,0,.23,2.06c3.13,3.62,6.22,7.27,9.42,11,3.88-5.34,7.65-10.53,11.45-15.71.66-.9,1-1.61.22-2.75C284.41,532,281.4,527.57,278.05,522.75Zm139.43-30.07c-3.88,4.85-7.12,9.62-11.08,13.81a2.38,2.38,0,0,0-.4,2.42c2,6.44,4,12.86,6.16,19.68,3.68-3.54,7.08-6.81,10.47-10.09a2,2,0,0,0,.67-2.23C421.34,508.61,419.5,500.92,417.48,492.68ZM203.75,477.12c-2.12,6.89-4.11,13.45-6.18,20a3,3,0,0,0,.5,3.06c3.07,4.22,6.77,7.87,10.09,12.08,2.4-6.48,4.74-12.75,7.05-19a2.25,2.25,0,0,0-.21-2.6C211.25,486.24,207.61,481.77,203.75,477.12Zm102.76,44.2c-.39.53-.63.83-.83,1.14-3.08,4.86-5.84,9.93-9.7,14.27-1,1.13-.38,2,.32,3,2.71,3.76,5.46,7.5,8.06,11.34.85,1.27,1.21,1,2,0,2.92-3.84,5.84-7.69,8.91-11.41,1.09-1.3,1.22-2.21.29-3.66C312.53,531.31,309.68,526.51,306.51,521.32Zm28.86.12c-3.34,5.75-7.38,10.29-10.77,15.3-.63.94-1.25,1.67-.31,3A106.64,106.64,0,0,1,332,551.64c.56,1.07,1.14,1.47,2,.32q4.58-5.79,9.19-11.56a2.35,2.35,0,0,0,.49-2.64C341,532.48,338.33,527.22,335.37,521.44Zm-43.8,21.44c-4,5.48-7.71,10.66-11.5,15.8-.75,1-.4,1.69.34,2.45a84,84,0,0,1,7.94,9.62c1,1.47,1.64,1.25,2.64-.06,3.08-4.07,5.94-8.32,9.52-12,1.11-1.13.62-2.07,0-3C297.59,551.51,294.68,547.35,291.57,542.88ZM222,529.38c2.85-6.5,5.59-12.79,8.37-19.07.5-1.12-.18-1.79-.78-2.52-2.71-3.28-5.47-6.51-8.13-9.83-1.27-1.6-1.73-1.17-2.3.51q-3,9-6.25,17.87a2.18,2.18,0,0,0,.46,2.51C216.23,522.23,219,525.68,222,529.38Zm13-15.47c-3,6.69-5.36,13.27-8.62,19.45a1.76,1.76,0,0,0,.35,2.28c2.55,2.79,5.09,5.58,7.61,8.4,1,1.17,1.6.76,2.22-.46q4-8,8.17-15.84a1.91,1.91,0,0,0-.36-2.49C241.3,521.6,238.28,517.87,235,513.91Zm138.64,24.32c3-3.38,5.82-6.35,8.47-9.44a3,3,0,0,0,.93-3.12c-2.39-6-4.08-12.33-6.92-18.34l-9.45,12.28a2,2,0,0,0-.3,2.34C368.78,527.18,371.09,532.44,373.66,538.23Zm-53.94,4.92c-3.44,4.25-6.68,8.18-9.82,12.2-.6.76-1.7,1.47-.62,2.91,2.66,3.55,5.15,7.23,7.6,10.92.84,1.25,1.35,1.19,2.24.1,2.88-3.5,5.78-7,8.78-10.39.93-1.06.62-1.69,0-2.67C325.13,551.93,322.48,547.58,319.72,543.15Zm77.11.46q4.74-4.33,9.42-8.64a1.7,1.7,0,0,0,.72-1.75c-1.92-6.56-3.85-13.12-5.89-20.07-3.51,4.42-6.72,8.47-10,12.5a2,2,0,0,0-.4,2.11C392.8,533.21,394.91,538.64,396.83,543.61ZM259,543.13a5.16,5.16,0,0,0-.46-.8q-4.14-5-8.31-10c-1.18-1.42-1.76-.36-2.22.6-1.26,2.64-2.43,5.31-3.67,8-1.48,3.13-4.57,6.53-4.07,9.28.55,3,4.43,5.35,6.86,8l.19.21c1,1.41,1.71,1.24,2.6-.28,2.75-4.72,5.66-9.36,8.5-14C258.63,543.73,258.83,543.43,259,543.13Zm-48.8-20c-2.47,7.2-4.88,14.19-7.29,21.19a1.35,1.35,0,0,0,.34,1.54c2.3,2.23,4.63,4.45,6.89,6.73,1,1,1.43.66,1.93-.48,2.34-5.25,4.74-10.48,7.13-15.71a2.56,2.56,0,0,0-.37-3.09C216,530.07,213.23,526.73,210.22,523.17Zm95,39.24c-1.17,0-1.32.66-1.66,1.08-3.15,4-6.25,8.09-9.48,12-.82,1-.6,1.56.1,2.4,2.47,3,5,6,7.27,9.09,1,1.4,1.6.78,2.35-.1,3.05-3.62,6.07-7.28,9.18-10.85.75-.86.45-1.34,0-2.17-2.08-3.74-4.85-7-7.16-10.57C305.52,562.93,305.26,562.54,305.18,562.41Zm56.59-36.13c-3.32,4.12-6.31,7.88-9.38,11.58a2.88,2.88,0,0,0-.42,3.78c2.15,3.76,4.11,7.63,6,11.5.7,1.41,1.19,1.33,2.14.24q3.91-4.49,8-8.84a2.57,2.57,0,0,0,.52-3.1C366.41,536.48,364.15,531.52,361.77,526.28Zm-85.72,64.11c3.17-4.25,6.25-8.4,9.36-12.53.65-.87.07-1.46-.36-2-2.63-3.35-5.33-6.63-7.95-10-1-1.3-1.66-1.07-2.48.16-2.66,4-5.32,8-8.08,12-.8,1.13-.53,1.79.31,2.66C269.87,583.79,272.83,587,276.05,590.39Zm-13-42.08a1.3,1.3,0,0,0-1.13.87c-2.86,4.89-5.69,9.8-8.58,14.66a1.41,1.41,0,0,0,.22,2c2.48,2.6,4.93,5.23,7.41,7.81.4.41.82,1.14,1.52.12,3-4.38,6-8.71,9-13a1.75,1.75,0,0,0-.17-2.48c-2.51-3-4.95-6-7.42-9C263.61,548.93,263.29,548.6,263,548.31Zm81.68,22.54a8.65,8.65,0,0,0,.76-.63c2.88-3.14,5.73-6.29,8.61-9.42.72-.78.51-1.45.07-2.29q-3.28-6.25-6.45-12.58c-.63-1.26-1.09-1.22-1.93-.16q-4.32,5.43-8.74,10.78a1.61,1.61,0,0,0-.13,2.23c2.31,3.67,4.51,7.41,6.77,11.11C343.9,570.26,343.93,570.84,344.71,570.85Zm38.09-11.54,8.93-9.16a1.83,1.83,0,0,0,.42-2.09c-2-5.25-4.12-10.49-6.22-15.86-3.28,3.6-6.43,7.11-9.62,10.56a1.59,1.59,0,0,0-.26,2C378.26,549.47,380.42,554.17,382.8,559.31ZM223.66,540.12c-2.37,5.65-4.55,11-6.86,16.23a2.28,2.28,0,0,0,.51,3c2.23,2.18,4.38,4.44,6.53,6.7.71.74,1.1,1.17,1.75-.19,2.16-4.51,4.43-9,6.76-13.41a2.48,2.48,0,0,0-.48-3.28C229.17,546.27,226.54,543.3,223.66,540.12Zm108.1,22.78a20.51,20.51,0,0,0-1.47,1.57,84.81,84.81,0,0,1-8.46,9.88c-1.15,1.12-.5,1.81.08,2.65,2,3,4.14,5.85,6.12,8.84.81,1.23,1.38,1.25,2.34.18q4.08-4.53,8.29-8.93a2,2,0,0,0,.25-2.74c-2-3.43-3.89-6.9-5.85-10.35C332.8,563.55,332.62,562.93,331.76,562.9ZM325.12,592c-.26-.4-.47-.7-.68-1-2.22-3.28-4.46-6.56-6.64-9.87-.71-1.07-1.19-.83-1.88,0-3.06,3.73-6.14,7.45-9.28,11.1-.69.81-.79,1.23-.05,2.09,2.21,2.59,4.31,5.27,6.38,8,.86,1.12,1.49,1.52,2.62.25,2.82-3.19,5.77-6.28,8.66-9.42C324.56,592.75,324.81,592.36,325.12,592Zm44-17.62,8.44-9a1.66,1.66,0,0,0,.45-1.83,138,138,0,0,0-6.8-14.64c-3.16,3.6-6.07,6.94-9,10.25a1.66,1.66,0,0,0-.34,2.24C364.24,565.63,366.6,569.89,369.09,574.34Zm-70.73,18.54a2.54,2.54,0,0,0-.25-.63c-2.74-3.12-4.73-6.82-7.71-9.76-.95-.94-1.19-.26-1.65.36-2.61,3.46-5.21,6.93-7.86,10.37a2.12,2.12,0,0,0,.1,3.21c2.2,2.33,4.3,4.76,6.35,7.23.79.94,1.31,1.18,2.18.12,2.69-3.29,5.44-6.52,8.15-9.79A7.66,7.66,0,0,0,298.36,592.88Zm55.93-4.1c2.92-2.77,5.78-5.51,8.67-8.2a2.42,2.42,0,0,0,.56-3.28c-1.81-3.41-3.64-6.81-5.34-10.27-.72-1.48-1.29-1.55-2.37-.35-2.58,2.89-5.2,5.74-7.9,8.51-1.1,1.13-.59,2,0,3C350.09,581.72,352.2,585.28,354.29,588.78Zm-11.83-7.53c-3.38,3.62-6.58,7.08-9.83,10.49a1.42,1.42,0,0,0-.1,2.2,101.73,101.73,0,0,1,7,9.89c3.11-3.07,6.12-6.06,9.16-9,1-1,1-1.73.24-2.92C346.71,588.49,344.7,585,342.46,581.25Zm-70.37,14.23c0-1-.7-1.37-1.11-1.85-2.28-2.66-4.67-5.22-6.85-7.94-1.1-1.35-1.66-1.08-2.44.18-2.18,3.54-4.36,7.07-6.63,10.55-.77,1.17-.3,1.82.52,2.64,2.2,2.21,4.42,4.41,6.44,6.77,1.1,1.28,1.68.73,2.38-.18q3.47-4.49,6.91-9C271.64,596.23,271.91,595.75,272.09,595.48Zm-22.24-25.84c-.32.48-.53.75-.69,1q-3.47,6.48-6.93,13c-.45.84-.08,1.37.5,2,2.16,2.24,4.33,4.46,6.39,6.79,1,1.15,1.41.65,2-.32q3.54-5.46,7.18-10.84a1.41,1.41,0,0,0-.12-2.15c-2.51-2.68-4.9-5.48-7.33-8.23ZM237.24,555.4c-2.46,5.11-4.78,9.83-7,14.6-.34.74-1.24,1.59-.23,2.55,2.48,2.36,4.95,4.73,7.5,7.17,2.44-4.38,4.91-8.82,7.38-13.24.54-1,.78-1.81-.15-2.79C242.28,561.09,239.94,558.4,237.24,555.4Zm63.25,62.91a3.33,3.33,0,0,0,.67-.46q4.39-4.64,8.78-9.29c.55-.59.14-1-.24-1.44q-3.4-4-6.78-8c-.55-.66-1-1.1-1.77-.2-2.61,3-5.29,5.94-7.91,8.93a1.89,1.89,0,0,0,0,2.93c1.88,2,3.57,4.17,5.39,6.23A3,3,0,0,0,300.49,618.31Zm25.42-.84c.35-.3.8-.64,1.19-1,2.23-2.19,4.39-4.45,6.68-6.56,1.35-1.24,1.26-2.28.24-3.65-1.74-2.35-3.45-4.73-5-7.23-.9-1.47-1.5-1.29-2.48-.19-2.46,2.74-4.94,5.47-7.49,8.14-.92,1-.82,1.65,0,2.64,1.88,2.23,3.64,4.57,5.45,6.87C324.88,616.89,325.07,617.49,325.91,617.47Zm-49.7-17.41c-.8.2-.95.76-1.26,1.22a63.5,63.5,0,0,1-6.58,8.55c-1,1-.85,1.71.07,2.61,2.17,2.11,4.36,4.22,6.41,6.45,1,1.08,1.53.58,2.2-.2,2.33-2.74,4.63-5.51,7-8.21a1.23,1.23,0,0,0-.07-1.94c-2.38-2.58-4.74-5.17-7.11-7.75Zm37.7,12.65c-3,3.12-5.85,6.23-8.86,9.21-.91.91-.82,1.44,0,2.27,1.76,1.83,3.55,3.66,5.15,5.64,1.1,1.35,1.77,1.46,3,.12a95,95,0,0,1,6.91-6.7,1.6,1.6,0,0,0,.19-2.61Zm-25.08,1.61a3.39,3.39,0,0,0-2.07,1.56,65.82,65.82,0,0,1-4.65,5.69c-1.85,1.79-2.37,3,0,4.77a27,27,0,0,1,4.24,4.18c1.12,1.26,1.94,1.43,3.12,0a75.86,75.86,0,0,1,5.59-6c1.16-1.12,1.16-2,.13-3.09-1.85-2-3.61-4.13-5.43-6.19C289.5,614.88,289.13,614.6,288.83,614.32Zm10.76,28.38c1-.85,2.06-1.75,3.07-2.73,5.27-5.11,5.74-3.39.33-9.27-.94-1-1.33-3.24-2.89-2.86-1.26.31-2.22,1.94-3.25,3.06-4.94,5.36-4.93,5.38.5,10.37A3.81,3.81,0,0,0,299.59,642.7ZM184.2,713.9l-.1.21h.18Z" transform="translate(-23.97 -324.95)" style="fill:#e64c8f"/><path d="M202,379l.19-1.45c.45.7.55,1.17-.07,1.55Z" transform="translate(-23.97 -324.95)" style="fill:#e64c8f"/><path d="M331.33,416.64l.1-.73.31.17-.44.54Z" transform="translate(-23.97 -324.95)" style="fill:#e64c8f"/><path d="M243.53,467.39a1,1,0,0,1-.48-1.22h0c.52,0,.73.41.93.8Z" transform="translate(-23.97 -324.95)" style="fill:#e64c8f"/><path d="M243.05,466.17l-.38-.19c.35-.43.31,0,.39.18Z" transform="translate(-23.97 -324.95)" style="fill:#e64c8f"/><path d="M359.22,430.31l.25-.41c.25.4,0,.43-.29.37Z" transform="translate(-23.97 -324.95)" style="fill:#e64c8f"/><path d="M318.24,416.59l-.38,0,.11-.3.23.4Z" transform="translate(-23.97 -324.95)" style="fill:#e64c8f"/><path d="M485.58,714.42l.24.08-.2-.12Z" transform="translate(-23.97 -324.95)" style="fill:#fffeff"/></svg>