<svg id="Слой_1" data-name="Слой 1" xmlns="http://www.w3.org/2000/svg" viewBox="0 0 91.71 160.94"><path d="M95.83,331.41c-8,0-16,0-24,0-2.63,0-5.46-.06-5.57-3.39-.11-3.16,2.08-4.64,5.26-4.64q24.45,0,48.91,0c2.93,0,5.6.93,5.59,4.3,0,3.67-2.94,3.75-5.78,3.73C112.13,331.36,104,331.4,95.83,331.41Z" transform="translate(-66.29 -247.73)" style="fill:#ec65a0"/><path d="M151.72,379.22c0,8-.08,16,0,23.94.05,3.09-.79,5.61-4.14,5.5-3-.09-3.8-2.64-3.8-5.44q0-24.44,0-48.87c0-2.57.61-4.87,3.61-5s4.29,2,4.28,4.91q0,12.46,0,24.93Z" transform="translate(-66.29 -247.73)" style="fill:#ec64a1"/><path d="M151.71,276.18c0,7.47,0,14.95,0,22.43,0,2.76-.54,5.3-3.77,5.3-3,0-4.16-2.34-4.16-5.17q0-22.92,0-45.85c0-2.74,1-5.4,4.06-5.15,2.7.23,3.89,2.63,3.86,5.51C151.65,260.89,151.7,268.54,151.71,276.18Z" transform="translate(-66.29 -247.73)" style="fill:#ec66a1"/><path d="M133.71,346.22c0,1.7-1.2,2.68-2.24,3.72Q117.36,364,103.22,378.05c-2,2-4.14,3.15-6.4.73-2-2.2-1.5-4.53.55-6.58q14.14-14,28.27-28.09c1.63-1.61,3.57-2.59,5.84-1.47A3.66,3.66,0,0,1,133.71,346.22Z" transform="translate(-66.29 -247.73)" style="fill:#ec63a0"/><path d="M133.75,308.86a3.76,3.76,0,0,1-5.91,3.36,31.59,31.59,0,0,1-4.77-4.36Q110.52,295.35,98,282.79c-1.91-1.91-3.52-4-1.11-6.39s4.83-1.49,7,.66q13.78,13.77,27.55,27.56C132.58,305.79,133.74,307,133.75,308.86Z" transform="translate(-66.29 -247.73)" style="fill:#ec65a0"/><path d="M138.67,326.82c0-8.27.71-8.85,10.37-8.81,7.22,0,9,1.72,9,8.64,0,8.72-1.3,10-10.13,10C139.74,336.56,138.64,335.39,138.67,326.82Z" transform="translate(-66.29 -247.73)" style="fill:#fff"/></svg>