<svg id="Слой_1" data-name="Слой 1" xmlns="http://www.w3.org/2000/svg" viewBox="0 0 389.6 130.91"><path d="M172.94,363.16q-15.19,17.23-30.4,34.47a19.64,19.64,0,0,1-3.37,3.27c-7.87,5.38-18.86,5.9-25.87,1-8.68-6.08-13-14.18-11.44-25.13a9.6,9.6,0,0,0-1.47-6.28,24.23,24.23,0,0,1,4.86-32.64,7.62,7.62,0,0,0,2.18-4.32c1.92-10.8,8-17.74,18.5-21a8.12,8.12,0,0,0,4.22-3.09c6.42-10.65,20.76-14.77,31.34-8.43a7.21,7.21,0,0,0,6.82.71c11.83-3.68,20.71.8,27,9.28,6.58,8.81,5.52,20.52-1.68,28.71-3.18,3.62-6.38,7.24-9.5,10.78,7.46,8.8,11.42,18.18,11.65,29,.09,4.52-2.09,7.3-5.66,7.2-4.17-.12-5.7-2.81-5.85-6.56a34.62,34.62,0,0,0-7.83-20.92Zm-53.27-20c-4.59,2.21-10.35,3.7-11.34,9.85-.53,3.34.24,6.89.37,9.27,6.34-1.71,11.74-3.7,17.31-4.44,3-.4,6.51.92,9.44,2.24,2.77,1.25,4.17,3.87,2.63,7.09-1.42,3-3.88,4-7,3.3-1.83-.39-3.64-1.19-5.47-1.22a12,12,0,0,0-11.81,8.91c-1.47,5,.73,11,5,13.67,4.59,2.84,11.67,2.4,15.33-1.66,11.3-12.52,22.36-25.26,33.72-38.15-6.37-4-13-5-20-4.84-2.26.06-5.33-.58-6.7-2.09-3.24-3.58-.43-8.66,4.93-9.26a45,45,0,0,1,28,6.23c.4.23.82.43,1.7.88,3.46-3.92,7.41-7.62,10.37-12s2.59-9.49-.41-13.83c-3.19-4.62-7.95-5.8-13.27-4.61.4,2.9,1,5.67,1.12,8.46.2,3.8-1.64,6.64-5.51,6.93-4.09.31-5.84-2.46-5.95-6.32-.14-5-2.18-8.86-6.89-10.83s-9.69-1.41-13.13,2.29c-2.53,2.72-3.71,6.7-5.6,10.32C120.45,324.83,118.58,327,119.67,343.17Z" transform="translate(-96.13 -297.95)" style="fill:#e5468c"/><path d="M235.25,362.75c-5.65,3.86-10.9,7.19-15.84,10.93a11.76,11.76,0,0,0-4.31,5.68c-8.41,31.9-44,46.58-71.18,32.62-4.39-2.26-7.51-1.3-9.29,2.23-1.47,2.94.15,6,4.22,8.08,26,13,57.45,6.23,75.09-16.86,4.59-6,7.52-13.26,11.34-19.87A14.43,14.43,0,0,1,229,381.1c5.71-4.12,11.59-8,17.4-12,6.48-4.44,6.14-10.53-.93-14.21-5.82-3-11.9-5.59-17.63-8.79-2.09-1.17-3.73-3.41-5.13-5.46-2.11-3.1-3.72-6.53-5.75-9.69-1.87-2.92-4.81-3.18-7.45-1.52s-3.87,4.15-2.3,7.33c2.42,4.91,4.77,9.86,7.33,14.69a6.54,6.54,0,0,0,2.83,2.18C223,356.61,228.75,359.47,235.25,362.75Z" transform="translate(-96.13 -297.95)" style="fill:#fff"/><text transform="translate(171.75 79.89)" style="font-size:54.43687057495117px;fill:#fff;font-family:ArialMT, Arial">Mind<tspan x="117.99" y="0" style="fill:#e5468c">Run</tspan></text></svg>