<svg id="Слой_1" data-name="Слой 1" xmlns="http://www.w3.org/2000/svg" viewBox="0 0 92.47 161.27"><path d="M395.51,408.85a19.7,19.7,0,0,0,1.66-1.38c10.48-10.47,20.9-21,31.45-31.38,2-2,1.47-3.2-.26-4.85-3.61-3.45-7.27-6.87-10.55-10.62-2.48-2.84-4.4-2.7-6.88-.19q-15.07,15.27-30.3,30.39c-1.81,1.79-1.48,2.88.13,4.43,4.06,3.94,8,8,12,12C393.46,407.91,394,408.85,395.51,408.85Zm19.05-79.33a6.25,6.25,0,0,0,1.19-.73q6.9-6.84,13.75-13.72c1.41-1.42.24-2.4-.68-3.33Q413,295.87,397.17,280c-1.51-1.53-2.61-1.56-4.11,0q-6.22,6.43-12.66,12.69c-1.65,1.6-1.19,2.64.23,4.06,10.37,10.29,20.66,20.65,31,31C412.42,328.5,413.14,329.52,414.56,329.52Zm41.66-41.14c0-7.15,0-14.3,0-21.44,0-2.23-.16-3.87-3.1-3.79-5.81.14-11.64.11-17.45,0-2.53,0-3,1.23-3,3.41q.07,21.69,0,43.38c0,2.6.93,3.49,3.49,3.42,5.15-.14,10.31-.19,15.46,0,3.42.14,4.78-1,4.67-4.56C456.07,302,456.22,295.19,456.22,288.38Zm0,111.83c0-7.32,0-14.63,0-21.94,0-2.57-.65-4.12-3.61-4.07-5.65.1-11.31.11-16.95,0-2.55-.06-3,1.23-3,3.38q.07,21.69,0,43.38c0,2.62,1,3.49,3.51,3.43,5.48-.12,11-.16,16.45,0,2.88.09,3.72-1,3.66-3.76C456.12,413.84,456.22,407,456.21,400.21Zm-67.42-44.69c6.8,0,13.61-.16,20.4.07,3.33.11,4.32-1.07,4.19-4.28-.22-5.3-.12-10.62,0-15.92,0-2.19-.52-3.38-3-3.36q-21.65.09-43.29,0c-2.38,0-3.21.93-3.17,3.24.09,5.47.18,11,0,16.42-.12,3.16,1.16,3.95,4.08,3.88C374.86,355.41,381.83,355.52,388.79,355.52Zm55.72-.08c11.64,0,11.64,0,11.64-11.54v-.5c0-11.26,0-11.26-11.42-11.26-11.93,0-11.93,0-11.93,11.79C432.8,355.44,432.8,355.44,444.51,355.44Z" transform="translate(-363.81 -263.14)" style="fill:#fefcfd"/><path d="M395.51,408.85c-1.5,0-2.05-.94-2.73-1.61-4-4-8-8.05-12-12-1.61-1.55-1.94-2.64-.13-4.43q15.25-15.09,30.3-30.39c2.48-2.51,4.4-2.65,6.88.19,3.28,3.75,6.94,7.17,10.55,10.62,1.73,1.65,2.25,2.88.26,4.85-10.55,10.39-21,20.91-31.45,31.38A19.7,19.7,0,0,1,395.51,408.85Z" transform="translate(-363.81 -263.14)" style="fill:#e5488c"/><path d="M414.56,329.52c-1.42,0-2.14-1-2.94-1.82-10.33-10.31-20.62-20.67-31-31-1.42-1.42-1.88-2.46-.23-4.06q6.44-6.24,12.66-12.69c1.5-1.55,2.6-1.52,4.11,0q15.78,15.92,31.65,31.74c.92.93,2.09,1.91.68,3.33q-6.86,6.87-13.75,13.72A6.25,6.25,0,0,1,414.56,329.52Z" transform="translate(-363.81 -263.14)" style="fill:#e5488c"/><path d="M456.22,288.38c0,6.81-.15,13.63,0,20.44.11,3.53-1.25,4.7-4.67,4.56-5.15-.2-10.31-.15-15.46,0-2.56.07-3.51-.82-3.49-3.42q.12-21.69,0-43.38c0-2.18.5-3.45,3-3.41,5.81.1,11.64.13,17.45,0,2.94-.08,3.12,1.56,3.1,3.79C456.18,274.08,456.22,281.23,456.22,288.38Z" transform="translate(-363.81 -263.14)" style="fill:#e5488c"/><path d="M456.22,400.21c0,6.81-.1,13.63,0,20.44.06,2.76-.78,3.85-3.66,3.76-5.48-.18-11-.14-16.45,0-2.55.06-3.53-.81-3.51-3.43q.12-21.69,0-43.38c0-2.15.47-3.44,3-3.38,5.64.11,11.3.1,16.95,0,3-.05,3.63,1.5,3.61,4.07C456.17,385.58,456.21,392.89,456.22,400.21Z" transform="translate(-363.81 -263.14)" style="fill:#e5488c"/><path d="M388.79,355.52c-7,0-13.93-.11-20.9.05-2.92.07-4.2-.72-4.08-3.88.22-5.47.13-10.95,0-16.42,0-2.31.79-3.25,3.17-3.24q21.64.09,43.29,0c2.51,0,3.06,1.17,3,3.36-.08,5.3-.18,10.62,0,15.92.13,3.21-.86,4.39-4.19,4.28C402.4,355.36,395.59,355.52,388.79,355.52Z" transform="translate(-363.81 -263.14)" style="fill:#e5488c"/><path d="M444.51,355.44c-11.71,0-11.71,0-11.71-11.51,0-11.79,0-11.79,11.93-11.79,11.42,0,11.42,0,11.42,11.26v.5C456.15,355.44,456.15,355.44,444.51,355.44Z" transform="translate(-363.81 -263.14)" style="fill:#fff"/></svg>